<mxfile host="app.diagrams.net" modified="2024-02-29T05:54:38.117Z" agent="Mozilla/5.0 (Windows NT 10.0; Win64; x64) AppleWebKit/537.36 (KHTML, like Gecko) Chrome/122.0.0.0 Safari/537.36" etag="DtjpoiWaGQ0QWiislg1U" version="23.1.7" type="github">
  <diagram name="Page-1" id="JkqxlUm9vlup5fEV65o1">
    <mxGraphModel dx="7400" dy="3543" grid="1" gridSize="10" guides="1" tooltips="1" connect="1" arrows="1" fold="1" page="0" pageScale="1" pageWidth="850" pageHeight="1100" math="1" shadow="0">
      <root>
        <mxCell id="0" />
        <mxCell id="1" parent="0" />
        <mxCell id="TbKJERnAUOHFU8CwP56J-2" value="" style="whiteSpace=wrap;html=1;aspect=fixed;fillColor=#dae8fc;strokeColor=#6c8ebf;" parent="1" vertex="1">
          <mxGeometry x="-5320" y="-2480" width="80" height="80" as="geometry" />
        </mxCell>
        <mxCell id="TbKJERnAUOHFU8CwP56J-3" value="" style="whiteSpace=wrap;html=1;aspect=fixed;fillColor=#dae8fc;strokeColor=#6c8ebf;" parent="1" vertex="1">
          <mxGeometry x="-5320" y="-2320" width="80" height="80" as="geometry" />
        </mxCell>
        <mxCell id="TbKJERnAUOHFU8CwP56J-4" value="" style="whiteSpace=wrap;html=1;aspect=fixed;fillColor=#dae8fc;strokeColor=#6c8ebf;" parent="1" vertex="1">
          <mxGeometry x="-5320" y="-2160" width="80" height="80" as="geometry" />
        </mxCell>
        <mxCell id="TbKJERnAUOHFU8CwP56J-5" value="HGATP" style="shape=table;startSize=40;container=1;collapsible=0;childLayout=tableLayout;fillColor=#dae8fc;strokeColor=#6c8ebf;" parent="1" vertex="1">
          <mxGeometry x="-5640" y="-2720" width="60" height="120" as="geometry" />
        </mxCell>
        <mxCell id="TbKJERnAUOHFU8CwP56J-6" value="" style="shape=tableRow;horizontal=0;startSize=0;swimlaneHead=0;swimlaneBody=0;strokeColor=inherit;top=0;left=0;bottom=0;right=0;collapsible=0;dropTarget=0;fillColor=none;points=[[0,0.5],[1,0.5]];portConstraint=eastwest;" parent="TbKJERnAUOHFU8CwP56J-5" vertex="1">
          <mxGeometry y="40" width="60" height="40" as="geometry" />
        </mxCell>
        <mxCell id="TbKJERnAUOHFU8CwP56J-7" value="VSATP" style="shape=partialRectangle;html=1;whiteSpace=wrap;connectable=0;strokeColor=#d6b656;overflow=hidden;fillColor=#fff2cc;top=0;left=0;bottom=0;right=0;pointerEvents=1;" parent="TbKJERnAUOHFU8CwP56J-6" vertex="1">
          <mxGeometry width="60" height="40" as="geometry">
            <mxRectangle width="60" height="40" as="alternateBounds" />
          </mxGeometry>
        </mxCell>
        <mxCell id="TbKJERnAUOHFU8CwP56J-8" value="" style="shape=tableRow;horizontal=0;startSize=0;swimlaneHead=0;swimlaneBody=0;strokeColor=inherit;top=0;left=0;bottom=0;right=0;collapsible=0;dropTarget=0;fillColor=none;points=[[0,0.5],[1,0.5]];portConstraint=eastwest;" parent="TbKJERnAUOHFU8CwP56J-5" vertex="1">
          <mxGeometry y="80" width="60" height="40" as="geometry" />
        </mxCell>
        <mxCell id="TbKJERnAUOHFU8CwP56J-9" value="GVA" style="shape=partialRectangle;html=1;whiteSpace=wrap;connectable=0;strokeColor=#b85450;overflow=hidden;fillColor=#f8cecc;top=0;left=0;bottom=0;right=0;pointerEvents=1;" parent="TbKJERnAUOHFU8CwP56J-8" vertex="1">
          <mxGeometry width="60" height="40" as="geometry">
            <mxRectangle width="60" height="40" as="alternateBounds" />
          </mxGeometry>
        </mxCell>
        <mxCell id="TbKJERnAUOHFU8CwP56J-10" value="VSATP = 0&amp;nbsp;&lt;br&gt;so&lt;br&gt;GVA = GPA" style="whiteSpace=wrap;html=1;aspect=fixed;fillColor=#fff2cc;strokeColor=#d6b656;" parent="1" vertex="1">
          <mxGeometry x="-5500" y="-2610" width="80" height="80" as="geometry" />
        </mxCell>
        <mxCell id="TbKJERnAUOHFU8CwP56J-12" style="edgeStyle=none;curved=1;rounded=0;orthogonalLoop=1;jettySize=auto;html=1;exitX=1;exitY=0.5;exitDx=0;exitDy=0;entryX=0.5;entryY=0;entryDx=0;entryDy=0;fontSize=12;startSize=8;endSize=8;" parent="1" source="TbKJERnAUOHFU8CwP56J-6" target="TbKJERnAUOHFU8CwP56J-10" edge="1">
          <mxGeometry relative="1" as="geometry">
            <Array as="points">
              <mxPoint x="-5480" y="-2660" />
            </Array>
          </mxGeometry>
        </mxCell>
        <mxCell id="TbKJERnAUOHFU8CwP56J-18" value="" style="endArrow=classic;html=1;rounded=0;fontSize=12;startSize=8;endSize=8;entryX=0.5;entryY=0;entryDx=0;entryDy=0;" parent="1" target="TbKJERnAUOHFU8CwP56J-2" edge="1">
          <mxGeometry width="50" height="50" relative="1" as="geometry">
            <mxPoint x="-5580" y="-2700" as="sourcePoint" />
            <mxPoint x="-5190" y="-2520" as="targetPoint" />
            <Array as="points">
              <mxPoint x="-5280" y="-2700" />
            </Array>
          </mxGeometry>
        </mxCell>
        <mxCell id="TbKJERnAUOHFU8CwP56J-15" value="HGATP.PPN" style="text;html=1;align=center;verticalAlign=middle;whiteSpace=wrap;rounded=0;" parent="1" vertex="1">
          <mxGeometry x="-5270" y="-2520" width="60" height="30" as="geometry" />
        </mxCell>
        <mxCell id="TbKJERnAUOHFU8CwP56J-20" value="" style="endArrow=classic;html=1;rounded=0;fontSize=12;startSize=8;endSize=8;exitX=0.5;exitY=1;exitDx=0;exitDy=0;entryX=0;entryY=0.5;entryDx=0;entryDy=0;" parent="1" source="TbKJERnAUOHFU8CwP56J-10" target="TbKJERnAUOHFU8CwP56J-2" edge="1">
          <mxGeometry width="50" height="50" relative="1" as="geometry">
            <mxPoint x="-5350" y="-2530" as="sourcePoint" />
            <mxPoint x="-5300" y="-2580" as="targetPoint" />
            <Array as="points">
              <mxPoint x="-5460" y="-2440" />
            </Array>
          </mxGeometry>
        </mxCell>
        <mxCell id="TbKJERnAUOHFU8CwP56J-21" value="GPA0[2]" style="text;html=1;align=center;verticalAlign=middle;whiteSpace=wrap;rounded=0;" parent="1" vertex="1">
          <mxGeometry x="-5450" y="-2460" width="60" height="20" as="geometry" />
        </mxCell>
        <mxCell id="TbKJERnAUOHFU8CwP56J-23" value="" style="endArrow=classic;html=1;rounded=0;fontSize=12;startSize=8;endSize=8;exitX=0.493;exitY=1.038;exitDx=0;exitDy=0;exitPerimeter=0;entryX=0;entryY=0.5;entryDx=0;entryDy=0;" parent="1" source="TbKJERnAUOHFU8CwP56J-8" edge="1">
          <mxGeometry width="50" height="50" relative="1" as="geometry">
            <mxPoint x="-5609.34" y="-2588.44" as="sourcePoint" />
            <mxPoint x="-5500" y="-2561.56" as="targetPoint" />
            <Array as="points">
              <mxPoint x="-5610" y="-2562" />
            </Array>
          </mxGeometry>
        </mxCell>
        <mxCell id="TbKJERnAUOHFU8CwP56J-32" value="" style="endArrow=classic;html=1;rounded=0;fontSize=12;startSize=8;endSize=8;entryX=-0.044;entryY=0.495;entryDx=0;entryDy=0;entryPerimeter=0;" parent="1" target="TbKJERnAUOHFU8CwP56J-3" edge="1">
          <mxGeometry width="50" height="50" relative="1" as="geometry">
            <mxPoint x="-5460" y="-2440" as="sourcePoint" />
            <mxPoint x="-5430" y="-2460" as="targetPoint" />
            <Array as="points">
              <mxPoint x="-5460" y="-2370" />
              <mxPoint x="-5460" y="-2280" />
            </Array>
          </mxGeometry>
        </mxCell>
        <mxCell id="TbKJERnAUOHFU8CwP56J-33" value="GPA0[1]" style="text;html=1;align=center;verticalAlign=middle;whiteSpace=wrap;rounded=0;" parent="1" vertex="1">
          <mxGeometry x="-5450" y="-2300" width="60" height="20" as="geometry" />
        </mxCell>
        <mxCell id="TbKJERnAUOHFU8CwP56J-34" value="" style="endArrow=classic;html=1;rounded=0;fontSize=12;startSize=8;endSize=8;entryX=0;entryY=0.5;entryDx=0;entryDy=0;" parent="1" target="TbKJERnAUOHFU8CwP56J-4" edge="1">
          <mxGeometry width="50" height="50" relative="1" as="geometry">
            <mxPoint x="-5460" y="-2280" as="sourcePoint" />
            <mxPoint x="-5310" y="-2180" as="targetPoint" />
            <Array as="points">
              <mxPoint x="-5460" y="-2120" />
            </Array>
          </mxGeometry>
        </mxCell>
        <mxCell id="TbKJERnAUOHFU8CwP56J-35" value="GPA0[0]" style="text;html=1;align=center;verticalAlign=middle;whiteSpace=wrap;rounded=0;" parent="1" vertex="1">
          <mxGeometry x="-5450" y="-2140" width="60" height="20" as="geometry" />
        </mxCell>
        <mxCell id="TbKJERnAUOHFU8CwP56J-36" value="" style="endArrow=classic;html=1;rounded=0;fontSize=12;startSize=8;endSize=8;exitX=0.5;exitY=1;exitDx=0;exitDy=0;entryX=0.5;entryY=0;entryDx=0;entryDy=0;" parent="1" source="TbKJERnAUOHFU8CwP56J-2" target="TbKJERnAUOHFU8CwP56J-3" edge="1">
          <mxGeometry width="50" height="50" relative="1" as="geometry">
            <mxPoint x="-5600" y="-2250" as="sourcePoint" />
            <mxPoint x="-5550" y="-2300" as="targetPoint" />
          </mxGeometry>
        </mxCell>
        <mxCell id="TbKJERnAUOHFU8CwP56J-37" value="" style="endArrow=classic;html=1;rounded=0;fontSize=12;startSize=8;endSize=8;exitX=0.5;exitY=1;exitDx=0;exitDy=0;entryX=0.5;entryY=0;entryDx=0;entryDy=0;" parent="1" edge="1">
          <mxGeometry width="50" height="50" relative="1" as="geometry">
            <mxPoint x="-5280.71" y="-2240" as="sourcePoint" />
            <mxPoint x="-5280.71" y="-2160" as="targetPoint" />
          </mxGeometry>
        </mxCell>
        <mxCell id="TbKJERnAUOHFU8CwP56J-38" value="PTE2.PPN" style="text;html=1;align=center;verticalAlign=middle;whiteSpace=wrap;rounded=0;" parent="1" vertex="1">
          <mxGeometry x="-5270" y="-2360" width="60" height="30" as="geometry" />
        </mxCell>
        <mxCell id="TbKJERnAUOHFU8CwP56J-39" value="PTE1.PPN" style="text;html=1;align=center;verticalAlign=middle;whiteSpace=wrap;rounded=0;" parent="1" vertex="1">
          <mxGeometry x="-5270" y="-2200" width="60" height="30" as="geometry" />
        </mxCell>
        <mxCell id="TbKJERnAUOHFU8CwP56J-41" value="" style="whiteSpace=wrap;html=1;aspect=fixed;fillColor=#dae8fc;strokeColor=#6c8ebf;" parent="1" vertex="1">
          <mxGeometry x="-5320" y="-2000" width="80" height="80" as="geometry" />
        </mxCell>
        <mxCell id="TbKJERnAUOHFU8CwP56J-42" value="" style="endArrow=classic;html=1;rounded=0;fontSize=12;startSize=8;endSize=8;exitX=0.5;exitY=1;exitDx=0;exitDy=0;entryX=0.5;entryY=0;entryDx=0;entryDy=0;" parent="1" edge="1">
          <mxGeometry width="50" height="50" relative="1" as="geometry">
            <mxPoint x="-5280.71" y="-2080" as="sourcePoint" />
            <mxPoint x="-5280.71" y="-2000" as="targetPoint" />
          </mxGeometry>
        </mxCell>
        <mxCell id="TbKJERnAUOHFU8CwP56J-43" value="PTE0.PPN" style="text;html=1;align=center;verticalAlign=middle;whiteSpace=wrap;rounded=0;" parent="1" vertex="1">
          <mxGeometry x="-5270" y="-2050" width="60" height="30" as="geometry" />
        </mxCell>
        <mxCell id="TbKJERnAUOHFU8CwP56J-44" value="" style="endArrow=classic;html=1;rounded=0;fontSize=12;startSize=8;endSize=8;" parent="1" edge="1">
          <mxGeometry width="50" height="50" relative="1" as="geometry">
            <mxPoint x="-5460" y="-2120" as="sourcePoint" />
            <mxPoint x="-5320" y="-1960" as="targetPoint" />
            <Array as="points">
              <mxPoint x="-5460" y="-1960" />
            </Array>
          </mxGeometry>
        </mxCell>
        <mxCell id="TbKJERnAUOHFU8CwP56J-45" value="GPA0.offset" style="text;html=1;align=center;verticalAlign=middle;whiteSpace=wrap;rounded=0;" parent="1" vertex="1">
          <mxGeometry x="-5450" y="-1980" width="60" height="20" as="geometry" />
        </mxCell>
        <mxCell id="TbKJERnAUOHFU8CwP56J-46" value="HPA" style="rounded=0;whiteSpace=wrap;html=1;fillColor=#647687;fontColor=#ffffff;strokeColor=#314354;" parent="1" vertex="1">
          <mxGeometry x="-5320" y="-1970" width="80" height="30" as="geometry" />
        </mxCell>
        <mxCell id="TbKJERnAUOHFU8CwP56J-47" value="&lt;b&gt;&lt;font style=&quot;font-size: 20px;&quot;&gt;VSATP: bare&amp;nbsp; &amp;nbsp; &amp;nbsp; &amp;nbsp;HGATP : sv39x4&lt;/font&gt;&lt;/b&gt;" style="text;html=1;align=center;verticalAlign=middle;whiteSpace=wrap;rounded=0;fontSize=16;" parent="1" vertex="1">
          <mxGeometry x="-5610" y="-2780" width="470" height="30" as="geometry" />
        </mxCell>
        <mxCell id="TbKJERnAUOHFU8CwP56J-48" value="HGATP = 0&amp;nbsp;&lt;br style=&quot;border-color: var(--border-color);&quot;&gt;so&lt;br style=&quot;border-color: var(--border-color);&quot;&gt;" style="whiteSpace=wrap;html=1;aspect=fixed;fillColor=#dae8fc;strokeColor=#6c8ebf;verticalAlign=top;" parent="1" vertex="1">
          <mxGeometry x="-4530" y="-2430" width="80" height="80" as="geometry" />
        </mxCell>
        <mxCell id="TbKJERnAUOHFU8CwP56J-51" value="HGATP" style="shape=table;startSize=40;container=1;collapsible=0;childLayout=tableLayout;fillColor=#dae8fc;strokeColor=#6c8ebf;" parent="1" vertex="1">
          <mxGeometry x="-4920" y="-2710" width="60" height="120" as="geometry" />
        </mxCell>
        <mxCell id="TbKJERnAUOHFU8CwP56J-52" value="" style="shape=tableRow;horizontal=0;startSize=0;swimlaneHead=0;swimlaneBody=0;strokeColor=inherit;top=0;left=0;bottom=0;right=0;collapsible=0;dropTarget=0;fillColor=none;points=[[0,0.5],[1,0.5]];portConstraint=eastwest;" parent="TbKJERnAUOHFU8CwP56J-51" vertex="1">
          <mxGeometry y="40" width="60" height="40" as="geometry" />
        </mxCell>
        <mxCell id="TbKJERnAUOHFU8CwP56J-53" value="VSATP" style="shape=partialRectangle;html=1;whiteSpace=wrap;connectable=0;strokeColor=#d6b656;overflow=hidden;fillColor=#fff2cc;top=0;left=0;bottom=0;right=0;pointerEvents=1;" parent="TbKJERnAUOHFU8CwP56J-52" vertex="1">
          <mxGeometry width="60" height="40" as="geometry">
            <mxRectangle width="60" height="40" as="alternateBounds" />
          </mxGeometry>
        </mxCell>
        <mxCell id="TbKJERnAUOHFU8CwP56J-54" value="" style="shape=tableRow;horizontal=0;startSize=0;swimlaneHead=0;swimlaneBody=0;strokeColor=inherit;top=0;left=0;bottom=0;right=0;collapsible=0;dropTarget=0;fillColor=none;points=[[0,0.5],[1,0.5]];portConstraint=eastwest;" parent="TbKJERnAUOHFU8CwP56J-51" vertex="1">
          <mxGeometry y="80" width="60" height="40" as="geometry" />
        </mxCell>
        <mxCell id="TbKJERnAUOHFU8CwP56J-55" value="GVA" style="shape=partialRectangle;html=1;whiteSpace=wrap;connectable=0;strokeColor=#b85450;overflow=hidden;fillColor=#f8cecc;top=0;left=0;bottom=0;right=0;pointerEvents=1;" parent="TbKJERnAUOHFU8CwP56J-54" vertex="1">
          <mxGeometry width="60" height="40" as="geometry">
            <mxRectangle width="60" height="40" as="alternateBounds" />
          </mxGeometry>
        </mxCell>
        <mxCell id="TbKJERnAUOHFU8CwP56J-58" value="" style="endArrow=classic;html=1;rounded=0;fontSize=12;startSize=8;endSize=8;entryX=0.5;entryY=0;entryDx=0;entryDy=0;" parent="1" target="TbKJERnAUOHFU8CwP56J-48" edge="1">
          <mxGeometry width="50" height="50" relative="1" as="geometry">
            <mxPoint x="-4860" y="-2690" as="sourcePoint" />
            <mxPoint x="-4470" y="-2510" as="targetPoint" />
            <Array as="points">
              <mxPoint x="-4490" y="-2690" />
            </Array>
          </mxGeometry>
        </mxCell>
        <mxCell id="TbKJERnAUOHFU8CwP56J-60" value="" style="endArrow=classic;html=1;rounded=0;fontSize=12;startSize=8;endSize=8;entryX=0;entryY=0.5;entryDx=0;entryDy=0;exitX=0.351;exitY=1.017;exitDx=0;exitDy=0;exitPerimeter=0;" parent="1" source="TbKJERnAUOHFU8CwP56J-80" target="TbKJERnAUOHFU8CwP56J-48" edge="1">
          <mxGeometry width="50" height="50" relative="1" as="geometry">
            <mxPoint x="-4680" y="-2470" as="sourcePoint" />
            <mxPoint x="-4510" y="-2530" as="targetPoint" />
            <Array as="points">
              <mxPoint x="-4681" y="-2390" />
            </Array>
          </mxGeometry>
        </mxCell>
        <mxCell id="TbKJERnAUOHFU8CwP56J-61" value="GPA0" style="text;html=1;align=center;verticalAlign=middle;whiteSpace=wrap;rounded=0;" parent="1" vertex="1">
          <mxGeometry x="-4630" y="-2410" width="60" height="20" as="geometry" />
        </mxCell>
        <mxCell id="TbKJERnAUOHFU8CwP56J-62" value="" style="endArrow=classic;html=1;rounded=0;fontSize=12;startSize=8;endSize=8;exitX=1;exitY=0.5;exitDx=0;exitDy=0;entryX=0;entryY=0.5;entryDx=0;entryDy=0;" parent="1" source="TbKJERnAUOHFU8CwP56J-54" target="TbKJERnAUOHFU8CwP56J-126" edge="1">
          <mxGeometry width="50" height="50" relative="1" as="geometry">
            <mxPoint x="-4889.34" y="-2578.44" as="sourcePoint" />
            <mxPoint x="-3580" y="-2610" as="targetPoint" />
            <Array as="points">
              <mxPoint x="-4410" y="-2610" />
              <mxPoint x="-3580" y="-2610" />
              <mxPoint x="-3580" y="-2515" />
            </Array>
          </mxGeometry>
        </mxCell>
        <mxCell id="TbKJERnAUOHFU8CwP56J-77" value="&lt;b&gt;&lt;font style=&quot;font-size: 20px;&quot;&gt;VSATP: sv39&amp;nbsp; &amp;nbsp; &amp;nbsp; &amp;nbsp;HGATP : bare&lt;/font&gt;&lt;/b&gt;" style="text;html=1;align=center;verticalAlign=middle;whiteSpace=wrap;rounded=0;fontSize=16;" parent="1" vertex="1">
          <mxGeometry x="-5000" y="-2790" width="470" height="30" as="geometry" />
        </mxCell>
        <mxCell id="TbKJERnAUOHFU8CwP56J-80" value="&lt;div style=&quot;border-color: var(--border-color); text-align: left;&quot;&gt;&lt;/div&gt;&lt;span style=&quot;border-color: var(--border-color); background-color: initial;&quot;&gt;&lt;/span&gt;&lt;div style=&quot;border-color: var(--border-color); text-align: left;&quot;&gt;&lt;span style=&quot;border-color: var(--border-color); background-color: initial;&quot;&gt;&lt;b&gt;GPA of entry in VS-stage&lt;/b&gt;&lt;/span&gt;&lt;/div&gt;&lt;div style=&quot;border-color: var(--border-color); text-align: left;&quot;&gt;&lt;span style=&quot;border-color: var(--border-color); background-color: initial;&quot;&gt;&lt;b&gt;root page table&lt;/b&gt;&lt;/span&gt;&lt;/div&gt;&lt;div style=&quot;border-color: var(--border-color); text-align: left;&quot;&gt;&lt;span style=&quot;border-color: var(--border-color); background-color: initial;&quot;&gt;&lt;b&gt;&lt;br&gt;&lt;/b&gt;&lt;/span&gt;&lt;/div&gt;&lt;div style=&quot;border-color: var(--border-color); text-align: left;&quot;&gt;&lt;span style=&quot;border-color: var(--border-color); background-color: initial;&quot;&gt;{GVA.VPN[2],VSATP.PPN} =&amp;gt; GPA0&lt;/span&gt;&lt;/div&gt;" style="rounded=0;whiteSpace=wrap;html=1;verticalAlign=top;fillColor=#fff2cc;strokeColor=#d6b656;" parent="1" vertex="1">
          <mxGeometry x="-4750" y="-2550" width="200" height="70" as="geometry" />
        </mxCell>
        <mxCell id="TbKJERnAUOHFU8CwP56J-83" value="HPA2 = GPA0" style="rounded=0;whiteSpace=wrap;html=1;fillColor=#647687;fontColor=#ffffff;strokeColor=#314354;" parent="1" vertex="1">
          <mxGeometry x="-4530" y="-2390" width="80" height="30" as="geometry" />
        </mxCell>
        <mxCell id="TbKJERnAUOHFU8CwP56J-85" value="&lt;div style=&quot;border-color: var(--border-color); text-align: left;&quot;&gt;&lt;/div&gt;&lt;span style=&quot;border-color: var(--border-color); background-color: initial;&quot;&gt;&lt;/span&gt;&lt;div style=&quot;border-color: var(--border-color); text-align: left;&quot;&gt;&lt;span style=&quot;border-color: var(--border-color); background-color: initial;&quot;&gt;&lt;b&gt;GPA of entry in VS-stage&lt;/b&gt;&lt;/span&gt;&lt;/div&gt;&lt;div style=&quot;border-color: var(--border-color); text-align: left;&quot;&gt;&lt;span style=&quot;border-color: var(--border-color); background-color: initial;&quot;&gt;&lt;b&gt;next level page table&lt;/b&gt;&lt;/span&gt;&lt;/div&gt;&lt;div style=&quot;border-color: var(--border-color); text-align: left;&quot;&gt;&lt;span style=&quot;background-color: initial;&quot;&gt;&lt;br&gt;&lt;/span&gt;&lt;/div&gt;&lt;div style=&quot;border-color: var(--border-color); text-align: left;&quot;&gt;&lt;span style=&quot;background-color: initial;&quot;&gt;{GVA.VPN[1],gPTE2.PPN}=&amp;gt; GPA1&lt;/span&gt;&lt;br&gt;&lt;/div&gt;" style="rounded=0;whiteSpace=wrap;html=1;verticalAlign=top;fillColor=#fff2cc;strokeColor=#d6b656;" parent="1" vertex="1">
          <mxGeometry x="-4330" y="-2550" width="200" height="70" as="geometry" />
        </mxCell>
        <mxCell id="TbKJERnAUOHFU8CwP56J-86" value="GVA.VPN[2]" style="text;html=1;align=center;verticalAlign=middle;whiteSpace=wrap;rounded=0;" parent="1" vertex="1">
          <mxGeometry x="-4830" y="-2510" width="60" height="20" as="geometry" />
        </mxCell>
        <mxCell id="TbKJERnAUOHFU8CwP56J-88" value="" style="endArrow=classic;html=1;rounded=0;fontSize=12;startSize=8;endSize=8;entryX=0;entryY=0.5;entryDx=0;entryDy=0;" parent="1" target="TbKJERnAUOHFU8CwP56J-80" edge="1">
          <mxGeometry width="50" height="50" relative="1" as="geometry">
            <mxPoint x="-4840" y="-2610" as="sourcePoint" />
            <mxPoint x="-4540" y="-2530" as="targetPoint" />
            <Array as="points">
              <mxPoint x="-4840" y="-2515" />
            </Array>
          </mxGeometry>
        </mxCell>
        <mxCell id="TbKJERnAUOHFU8CwP56J-89" value="" style="endArrow=classic;html=1;rounded=0;fontSize=12;startSize=8;endSize=8;exitX=1;exitY=0.5;exitDx=0;exitDy=0;entryX=0.5;entryY=0;entryDx=0;entryDy=0;" parent="1" source="TbKJERnAUOHFU8CwP56J-51" target="TbKJERnAUOHFU8CwP56J-80" edge="1">
          <mxGeometry width="50" height="50" relative="1" as="geometry">
            <mxPoint x="-4590" y="-2510" as="sourcePoint" />
            <mxPoint x="-4540" y="-2560" as="targetPoint" />
            <Array as="points">
              <mxPoint x="-4650" y="-2650" />
            </Array>
          </mxGeometry>
        </mxCell>
        <mxCell id="TbKJERnAUOHFU8CwP56J-90" value="GVA.VPN[1]" style="text;html=1;align=center;verticalAlign=middle;whiteSpace=wrap;rounded=0;" parent="1" vertex="1">
          <mxGeometry x="-4400" y="-2510" width="60" height="20" as="geometry" />
        </mxCell>
        <mxCell id="TbKJERnAUOHFU8CwP56J-91" value="" style="endArrow=classic;html=1;rounded=0;fontSize=12;startSize=8;endSize=8;entryX=0;entryY=0.5;entryDx=0;entryDy=0;" parent="1" target="TbKJERnAUOHFU8CwP56J-85" edge="1">
          <mxGeometry width="50" height="50" relative="1" as="geometry">
            <mxPoint x="-4400" y="-2610" as="sourcePoint" />
            <mxPoint x="-4540" y="-2560" as="targetPoint" />
            <Array as="points">
              <mxPoint x="-4400" y="-2515" />
            </Array>
          </mxGeometry>
        </mxCell>
        <mxCell id="TbKJERnAUOHFU8CwP56J-94" value="HGATP = 0&amp;nbsp;&lt;br style=&quot;border-color: var(--border-color);&quot;&gt;so&lt;br style=&quot;border-color: var(--border-color);&quot;&gt;" style="whiteSpace=wrap;html=1;aspect=fixed;fillColor=#dae8fc;strokeColor=#6c8ebf;verticalAlign=top;" parent="1" vertex="1">
          <mxGeometry x="-4080" y="-2430" width="80" height="80" as="geometry" />
        </mxCell>
        <mxCell id="TbKJERnAUOHFU8CwP56J-95" value="" style="endArrow=classic;html=1;rounded=0;fontSize=12;startSize=8;endSize=8;entryX=0;entryY=0.5;entryDx=0;entryDy=0;" parent="1" edge="1">
          <mxGeometry width="50" height="50" relative="1" as="geometry">
            <mxPoint x="-4240" y="-2480" as="sourcePoint" />
            <mxPoint x="-4080" y="-2390" as="targetPoint" />
            <Array as="points">
              <mxPoint x="-4240" y="-2390" />
            </Array>
          </mxGeometry>
        </mxCell>
        <mxCell id="TbKJERnAUOHFU8CwP56J-96" value="GPA1" style="text;html=1;align=center;verticalAlign=middle;whiteSpace=wrap;rounded=0;" parent="1" vertex="1">
          <mxGeometry x="-4180" y="-2416.5" width="60" height="20" as="geometry" />
        </mxCell>
        <mxCell id="TbKJERnAUOHFU8CwP56J-97" value="HPA1 = GPA1" style="rounded=0;whiteSpace=wrap;html=1;fillColor=#647687;fontColor=#ffffff;strokeColor=#314354;" parent="1" vertex="1">
          <mxGeometry x="-4080" y="-2390" width="80" height="30" as="geometry" />
        </mxCell>
        <mxCell id="TbKJERnAUOHFU8CwP56J-105" value="&lt;div style=&quot;border-color: var(--border-color); text-align: left;&quot;&gt;&lt;/div&gt;&lt;span style=&quot;border-color: var(--border-color); background-color: initial;&quot;&gt;&lt;/span&gt;&lt;div style=&quot;border-color: var(--border-color); text-align: left;&quot;&gt;&lt;span style=&quot;border-color: var(--border-color); background-color: initial;&quot;&gt;&lt;b&gt;GPA of entry in VS-stage&lt;/b&gt;&lt;/span&gt;&lt;/div&gt;&lt;div style=&quot;border-color: var(--border-color); text-align: left;&quot;&gt;&lt;span style=&quot;border-color: var(--border-color); background-color: initial;&quot;&gt;&lt;b&gt;next level page table&lt;/b&gt;&lt;/span&gt;&lt;/div&gt;&lt;div style=&quot;border-color: var(--border-color); text-align: left;&quot;&gt;&lt;span style=&quot;border-color: var(--border-color); background-color: initial;&quot;&gt;&lt;b&gt;&lt;br&gt;&lt;/b&gt;&lt;/span&gt;&lt;/div&gt;&lt;div style=&quot;border-color: var(--border-color); text-align: left;&quot;&gt;&lt;span style=&quot;border-color: var(--border-color); background-color: initial;&quot;&gt;{GVA.VPN[0],gPTE1.PPN} =&amp;gt; GPA2&lt;/span&gt;&lt;/div&gt;" style="rounded=0;whiteSpace=wrap;html=1;verticalAlign=top;fillColor=#fff2cc;strokeColor=#d6b656;" parent="1" vertex="1">
          <mxGeometry x="-3920" y="-2550" width="200" height="70" as="geometry" />
        </mxCell>
        <mxCell id="TbKJERnAUOHFU8CwP56J-106" value="GVA.VPN[0]" style="text;html=1;align=center;verticalAlign=middle;whiteSpace=wrap;rounded=0;" parent="1" vertex="1">
          <mxGeometry x="-3990" y="-2510" width="60" height="20" as="geometry" />
        </mxCell>
        <mxCell id="TbKJERnAUOHFU8CwP56J-107" value="" style="endArrow=classic;html=1;rounded=0;fontSize=12;startSize=8;endSize=8;entryX=0;entryY=0.5;entryDx=0;entryDy=0;" parent="1" target="TbKJERnAUOHFU8CwP56J-105" edge="1">
          <mxGeometry width="50" height="50" relative="1" as="geometry">
            <mxPoint x="-3990" y="-2610" as="sourcePoint" />
            <mxPoint x="-4130" y="-2560" as="targetPoint" />
            <Array as="points">
              <mxPoint x="-3990" y="-2515" />
            </Array>
          </mxGeometry>
        </mxCell>
        <mxCell id="TbKJERnAUOHFU8CwP56J-108" value="HGATP = 0&amp;nbsp;&lt;br style=&quot;border-color: var(--border-color);&quot;&gt;so&lt;br style=&quot;border-color: var(--border-color);&quot;&gt;" style="whiteSpace=wrap;html=1;aspect=fixed;fillColor=#dae8fc;strokeColor=#6c8ebf;verticalAlign=top;" parent="1" vertex="1">
          <mxGeometry x="-3670" y="-2430" width="80" height="80" as="geometry" />
        </mxCell>
        <mxCell id="TbKJERnAUOHFU8CwP56J-109" value="" style="endArrow=classic;html=1;rounded=0;fontSize=12;startSize=8;endSize=8;entryX=0;entryY=0.5;entryDx=0;entryDy=0;" parent="1" edge="1">
          <mxGeometry width="50" height="50" relative="1" as="geometry">
            <mxPoint x="-3830" y="-2480" as="sourcePoint" />
            <mxPoint x="-3670" y="-2390" as="targetPoint" />
            <Array as="points">
              <mxPoint x="-3830" y="-2390" />
            </Array>
          </mxGeometry>
        </mxCell>
        <mxCell id="TbKJERnAUOHFU8CwP56J-110" value="GPA2" style="text;html=1;align=center;verticalAlign=middle;whiteSpace=wrap;rounded=0;" parent="1" vertex="1">
          <mxGeometry x="-3770" y="-2416.5" width="60" height="20" as="geometry" />
        </mxCell>
        <mxCell id="TbKJERnAUOHFU8CwP56J-111" value="HPA0 = GPA2" style="rounded=0;whiteSpace=wrap;html=1;fillColor=#647687;fontColor=#ffffff;strokeColor=#314354;" parent="1" vertex="1">
          <mxGeometry x="-3670" y="-2390" width="80" height="30" as="geometry" />
        </mxCell>
        <mxCell id="TbKJERnAUOHFU8CwP56J-112" value="" style="endArrow=classic;html=1;rounded=0;fontSize=12;startSize=8;endSize=8;entryX=0.5;entryY=0;entryDx=0;entryDy=0;" parent="1" target="TbKJERnAUOHFU8CwP56J-94" edge="1">
          <mxGeometry width="50" height="50" relative="1" as="geometry">
            <mxPoint x="-4490" y="-2690" as="sourcePoint" />
            <mxPoint x="-4360" y="-2490" as="targetPoint" />
            <Array as="points">
              <mxPoint x="-4040" y="-2690" />
            </Array>
          </mxGeometry>
        </mxCell>
        <mxCell id="TbKJERnAUOHFU8CwP56J-113" value="" style="endArrow=classic;html=1;rounded=0;fontSize=12;startSize=8;endSize=8;exitX=1;exitY=0.5;exitDx=0;exitDy=0;" parent="1" source="TbKJERnAUOHFU8CwP56J-83" edge="1">
          <mxGeometry width="50" height="50" relative="1" as="geometry">
            <mxPoint x="-4460" y="-2440" as="sourcePoint" />
            <mxPoint x="-4309" y="-2480" as="targetPoint" />
            <Array as="points">
              <mxPoint x="-4309" y="-2375" />
            </Array>
          </mxGeometry>
        </mxCell>
        <mxCell id="TbKJERnAUOHFU8CwP56J-114" value="gPTE2" style="text;html=1;align=center;verticalAlign=middle;whiteSpace=wrap;rounded=0;" parent="1" vertex="1">
          <mxGeometry x="-4400" y="-2396.5" width="60" height="20" as="geometry" />
        </mxCell>
        <mxCell id="TbKJERnAUOHFU8CwP56J-115" value="" style="endArrow=classic;html=1;rounded=0;fontSize=12;startSize=8;endSize=8;exitX=1;exitY=0.5;exitDx=0;exitDy=0;" parent="1" source="TbKJERnAUOHFU8CwP56J-97" edge="1">
          <mxGeometry width="50" height="50" relative="1" as="geometry">
            <mxPoint x="-4020" y="-2375" as="sourcePoint" />
            <mxPoint x="-3879" y="-2480" as="targetPoint" />
            <Array as="points">
              <mxPoint x="-3879" y="-2375" />
            </Array>
          </mxGeometry>
        </mxCell>
        <mxCell id="TbKJERnAUOHFU8CwP56J-116" value="gPTE1" style="text;html=1;align=center;verticalAlign=middle;whiteSpace=wrap;rounded=0;" parent="1" vertex="1">
          <mxGeometry x="-3970" y="-2396.5" width="60" height="20" as="geometry" />
        </mxCell>
        <mxCell id="TbKJERnAUOHFU8CwP56J-126" value="&lt;div style=&quot;border-color: var(--border-color); text-align: left;&quot;&gt;&lt;/div&gt;&lt;span style=&quot;border-color: var(--border-color); background-color: initial;&quot;&gt;&lt;/span&gt;&lt;div style=&quot;border-color: var(--border-color); text-align: left;&quot;&gt;&lt;span style=&quot;border-color: var(--border-color); background-color: initial;&quot;&gt;&lt;b&gt;GPA of entry in VS-stage&lt;/b&gt;&lt;/span&gt;&lt;/div&gt;&lt;div style=&quot;border-color: var(--border-color); text-align: left;&quot;&gt;&lt;span style=&quot;border-color: var(--border-color); background-color: initial;&quot;&gt;&lt;b&gt;next level page table&lt;/b&gt;&lt;/span&gt;&lt;/div&gt;&lt;div style=&quot;border-color: var(--border-color); text-align: left;&quot;&gt;&lt;span style=&quot;border-color: var(--border-color); background-color: initial;&quot;&gt;&lt;b&gt;&lt;br&gt;&lt;/b&gt;&lt;/span&gt;&lt;/div&gt;&lt;div style=&quot;border-color: var(--border-color); text-align: left;&quot;&gt;&lt;span style=&quot;border-color: var(--border-color); background-color: initial;&quot;&gt;{GVA.offset,gPTE0.PPN} =&amp;gt; GPA3&lt;/span&gt;&lt;/div&gt;" style="rounded=0;whiteSpace=wrap;html=1;verticalAlign=top;fillColor=#fff2cc;strokeColor=#d6b656;" parent="1" vertex="1">
          <mxGeometry x="-3510" y="-2550" width="190" height="70" as="geometry" />
        </mxCell>
        <mxCell id="TbKJERnAUOHFU8CwP56J-127" value="GVA.offset" style="text;html=1;align=center;verticalAlign=middle;whiteSpace=wrap;rounded=0;" parent="1" vertex="1">
          <mxGeometry x="-3580" y="-2510" width="60" height="20" as="geometry" />
        </mxCell>
        <mxCell id="TbKJERnAUOHFU8CwP56J-129" value="HGATP = 0&amp;nbsp;&lt;br style=&quot;border-color: var(--border-color);&quot;&gt;so&lt;br style=&quot;border-color: var(--border-color);&quot;&gt;" style="whiteSpace=wrap;html=1;aspect=fixed;fillColor=#dae8fc;strokeColor=#6c8ebf;verticalAlign=top;" parent="1" vertex="1">
          <mxGeometry x="-3260" y="-2430" width="80" height="80" as="geometry" />
        </mxCell>
        <mxCell id="TbKJERnAUOHFU8CwP56J-130" value="" style="endArrow=classic;html=1;rounded=0;fontSize=12;startSize=8;endSize=8;entryX=0;entryY=0.5;entryDx=0;entryDy=0;exitX=0.5;exitY=1;exitDx=0;exitDy=0;" parent="1" source="TbKJERnAUOHFU8CwP56J-126" edge="1">
          <mxGeometry width="50" height="50" relative="1" as="geometry">
            <mxPoint x="-3411" y="-2473.5" as="sourcePoint" />
            <mxPoint x="-3260" y="-2390" as="targetPoint" />
            <Array as="points">
              <mxPoint x="-3415" y="-2390" />
            </Array>
          </mxGeometry>
        </mxCell>
        <mxCell id="TbKJERnAUOHFU8CwP56J-131" value="GPA3" style="text;html=1;align=center;verticalAlign=middle;whiteSpace=wrap;rounded=0;" parent="1" vertex="1">
          <mxGeometry x="-3360" y="-2416.5" width="60" height="20" as="geometry" />
        </mxCell>
        <mxCell id="TbKJERnAUOHFU8CwP56J-132" value="HPA&amp;nbsp; = GPA3" style="rounded=0;whiteSpace=wrap;html=1;fillColor=#0050ef;strokeColor=#001DBC;fontColor=#ffffff;" parent="1" vertex="1">
          <mxGeometry x="-3260" y="-2390" width="80" height="30" as="geometry" />
        </mxCell>
        <mxCell id="TbKJERnAUOHFU8CwP56J-133" value="" style="endArrow=classic;html=1;rounded=0;fontSize=12;startSize=8;endSize=8;exitX=1;exitY=0.5;exitDx=0;exitDy=0;" parent="1" edge="1">
          <mxGeometry width="50" height="50" relative="1" as="geometry">
            <mxPoint x="-3590" y="-2375" as="sourcePoint" />
            <mxPoint x="-3469" y="-2480" as="targetPoint" />
            <Array as="points">
              <mxPoint x="-3469" y="-2375" />
            </Array>
          </mxGeometry>
        </mxCell>
        <mxCell id="TbKJERnAUOHFU8CwP56J-134" value="gPTE0" style="text;html=1;align=center;verticalAlign=middle;whiteSpace=wrap;rounded=0;" parent="1" vertex="1">
          <mxGeometry x="-3560" y="-2396.5" width="60" height="20" as="geometry" />
        </mxCell>
        <mxCell id="TbKJERnAUOHFU8CwP56J-135" value="" style="endArrow=classic;html=1;rounded=0;fontSize=12;startSize=8;endSize=8;entryX=0.5;entryY=0;entryDx=0;entryDy=0;" parent="1" edge="1">
          <mxGeometry width="50" height="50" relative="1" as="geometry">
            <mxPoint x="-4040" y="-2690" as="sourcePoint" />
            <mxPoint x="-3630" y="-2430" as="targetPoint" />
            <Array as="points">
              <mxPoint x="-3630" y="-2690" />
            </Array>
          </mxGeometry>
        </mxCell>
        <mxCell id="TbKJERnAUOHFU8CwP56J-136" value="" style="endArrow=classic;html=1;rounded=0;fontSize=12;startSize=8;endSize=8;entryX=0.5;entryY=0;entryDx=0;entryDy=0;" parent="1" edge="1">
          <mxGeometry width="50" height="50" relative="1" as="geometry">
            <mxPoint x="-3630" y="-2690" as="sourcePoint" />
            <mxPoint x="-3220" y="-2430" as="targetPoint" />
            <Array as="points">
              <mxPoint x="-3220" y="-2690" />
            </Array>
          </mxGeometry>
        </mxCell>
        <mxCell id="TbKJERnAUOHFU8CwP56J-137" value="" style="whiteSpace=wrap;html=1;aspect=fixed;fillColor=#dae8fc;strokeColor=#6c8ebf;" parent="1" vertex="1">
          <mxGeometry x="-5240" y="-1160" width="80" height="80" as="geometry" />
        </mxCell>
        <mxCell id="TbKJERnAUOHFU8CwP56J-138" value="" style="whiteSpace=wrap;html=1;aspect=fixed;fillColor=#dae8fc;strokeColor=#6c8ebf;" parent="1" vertex="1">
          <mxGeometry x="-5240" y="-1000" width="80" height="80" as="geometry" />
        </mxCell>
        <mxCell id="TbKJERnAUOHFU8CwP56J-139" value="" style="whiteSpace=wrap;html=1;aspect=fixed;fillColor=#dae8fc;strokeColor=#6c8ebf;" parent="1" vertex="1">
          <mxGeometry x="-5240" y="-840" width="80" height="80" as="geometry" />
        </mxCell>
        <mxCell id="TbKJERnAUOHFU8CwP56J-140" value="HGATP" style="shape=table;startSize=40;container=1;collapsible=0;childLayout=tableLayout;fillColor=#dae8fc;strokeColor=#6c8ebf;" parent="1" vertex="1">
          <mxGeometry x="-5560" y="-1580" width="60" height="120" as="geometry" />
        </mxCell>
        <mxCell id="TbKJERnAUOHFU8CwP56J-141" value="" style="shape=tableRow;horizontal=0;startSize=0;swimlaneHead=0;swimlaneBody=0;strokeColor=inherit;top=0;left=0;bottom=0;right=0;collapsible=0;dropTarget=0;fillColor=none;points=[[0,0.5],[1,0.5]];portConstraint=eastwest;" parent="TbKJERnAUOHFU8CwP56J-140" vertex="1">
          <mxGeometry y="40" width="60" height="40" as="geometry" />
        </mxCell>
        <mxCell id="TbKJERnAUOHFU8CwP56J-142" value="VSATP" style="shape=partialRectangle;html=1;whiteSpace=wrap;connectable=0;strokeColor=#d6b656;overflow=hidden;fillColor=#fff2cc;top=0;left=0;bottom=0;right=0;pointerEvents=1;" parent="TbKJERnAUOHFU8CwP56J-141" vertex="1">
          <mxGeometry width="60" height="40" as="geometry">
            <mxRectangle width="60" height="40" as="alternateBounds" />
          </mxGeometry>
        </mxCell>
        <mxCell id="TbKJERnAUOHFU8CwP56J-143" value="" style="shape=tableRow;horizontal=0;startSize=0;swimlaneHead=0;swimlaneBody=0;strokeColor=inherit;top=0;left=0;bottom=0;right=0;collapsible=0;dropTarget=0;fillColor=none;points=[[0,0.5],[1,0.5]];portConstraint=eastwest;" parent="TbKJERnAUOHFU8CwP56J-140" vertex="1">
          <mxGeometry y="80" width="60" height="40" as="geometry" />
        </mxCell>
        <mxCell id="TbKJERnAUOHFU8CwP56J-144" value="GVA" style="shape=partialRectangle;html=1;whiteSpace=wrap;connectable=0;strokeColor=#b85450;overflow=hidden;fillColor=#f8cecc;top=0;left=0;bottom=0;right=0;pointerEvents=1;" parent="TbKJERnAUOHFU8CwP56J-143" vertex="1">
          <mxGeometry width="60" height="40" as="geometry">
            <mxRectangle width="60" height="40" as="alternateBounds" />
          </mxGeometry>
        </mxCell>
        <mxCell id="TbKJERnAUOHFU8CwP56J-145" value="VSATP = 0&amp;nbsp;&lt;br&gt;so&lt;br&gt;GVA = GPA" style="whiteSpace=wrap;html=1;aspect=fixed;fillColor=#fff2cc;strokeColor=#d6b656;" parent="1" vertex="1">
          <mxGeometry x="-5420" y="-1470" width="80" height="80" as="geometry" />
        </mxCell>
        <mxCell id="TbKJERnAUOHFU8CwP56J-146" style="edgeStyle=none;curved=1;rounded=0;orthogonalLoop=1;jettySize=auto;html=1;exitX=1;exitY=0.5;exitDx=0;exitDy=0;entryX=0.5;entryY=0;entryDx=0;entryDy=0;fontSize=12;startSize=8;endSize=8;" parent="1" source="TbKJERnAUOHFU8CwP56J-141" target="TbKJERnAUOHFU8CwP56J-145" edge="1">
          <mxGeometry relative="1" as="geometry">
            <Array as="points">
              <mxPoint x="-5400" y="-1520" />
            </Array>
          </mxGeometry>
        </mxCell>
        <mxCell id="TbKJERnAUOHFU8CwP56J-147" value="" style="endArrow=classic;html=1;rounded=0;fontSize=12;startSize=8;endSize=8;entryX=0.5;entryY=0;entryDx=0;entryDy=0;" parent="1" target="TbKJERnAUOHFU8CwP56J-171" edge="1">
          <mxGeometry width="50" height="50" relative="1" as="geometry">
            <mxPoint x="-5500" y="-1560" as="sourcePoint" />
            <mxPoint x="-5190" y="-1300" as="targetPoint" />
            <Array as="points">
              <mxPoint x="-5200" y="-1560" />
            </Array>
          </mxGeometry>
        </mxCell>
        <mxCell id="TbKJERnAUOHFU8CwP56J-148" value="HGATP.PPN" style="text;html=1;align=center;verticalAlign=middle;whiteSpace=wrap;rounded=0;" parent="1" vertex="1">
          <mxGeometry x="-5190" y="-1380" width="60" height="30" as="geometry" />
        </mxCell>
        <mxCell id="TbKJERnAUOHFU8CwP56J-149" value="" style="endArrow=classic;html=1;rounded=0;fontSize=12;startSize=8;endSize=8;exitX=0.5;exitY=1;exitDx=0;exitDy=0;entryX=0;entryY=0.5;entryDx=0;entryDy=0;" parent="1" source="TbKJERnAUOHFU8CwP56J-145" target="TbKJERnAUOHFU8CwP56J-171" edge="1">
          <mxGeometry width="50" height="50" relative="1" as="geometry">
            <mxPoint x="-5270" y="-1390" as="sourcePoint" />
            <mxPoint x="-5330" y="-1250" as="targetPoint" />
            <Array as="points">
              <mxPoint x="-5380" y="-1280" />
            </Array>
          </mxGeometry>
        </mxCell>
        <mxCell id="TbKJERnAUOHFU8CwP56J-150" value="GPA0[2]" style="text;html=1;align=center;verticalAlign=middle;whiteSpace=wrap;rounded=0;" parent="1" vertex="1">
          <mxGeometry x="-5370" y="-1140" width="60" height="20" as="geometry" />
        </mxCell>
        <mxCell id="TbKJERnAUOHFU8CwP56J-151" value="" style="endArrow=classic;html=1;rounded=0;fontSize=12;startSize=8;endSize=8;exitX=0.493;exitY=1.038;exitDx=0;exitDy=0;exitPerimeter=0;entryX=0;entryY=0.5;entryDx=0;entryDy=0;" parent="1" source="TbKJERnAUOHFU8CwP56J-143" edge="1">
          <mxGeometry width="50" height="50" relative="1" as="geometry">
            <mxPoint x="-5529.34" y="-1448.44" as="sourcePoint" />
            <mxPoint x="-5420" y="-1421.56" as="targetPoint" />
            <Array as="points">
              <mxPoint x="-5530" y="-1422" />
            </Array>
          </mxGeometry>
        </mxCell>
        <mxCell id="TbKJERnAUOHFU8CwP56J-152" value="" style="endArrow=classic;html=1;rounded=0;fontSize=12;startSize=8;endSize=8;entryX=-0.044;entryY=0.495;entryDx=0;entryDy=0;entryPerimeter=0;" parent="1" target="TbKJERnAUOHFU8CwP56J-138" edge="1">
          <mxGeometry width="50" height="50" relative="1" as="geometry">
            <mxPoint x="-5380" y="-1120" as="sourcePoint" />
            <mxPoint x="-5350" y="-1140" as="targetPoint" />
            <Array as="points">
              <mxPoint x="-5380" y="-1050" />
              <mxPoint x="-5380" y="-960" />
            </Array>
          </mxGeometry>
        </mxCell>
        <mxCell id="TbKJERnAUOHFU8CwP56J-153" value="GPA0[1]" style="text;html=1;align=center;verticalAlign=middle;whiteSpace=wrap;rounded=0;" parent="1" vertex="1">
          <mxGeometry x="-5370" y="-980" width="60" height="20" as="geometry" />
        </mxCell>
        <mxCell id="TbKJERnAUOHFU8CwP56J-154" value="" style="endArrow=classic;html=1;rounded=0;fontSize=12;startSize=8;endSize=8;entryX=0;entryY=0.5;entryDx=0;entryDy=0;" parent="1" target="TbKJERnAUOHFU8CwP56J-139" edge="1">
          <mxGeometry width="50" height="50" relative="1" as="geometry">
            <mxPoint x="-5380" y="-960" as="sourcePoint" />
            <mxPoint x="-5230" y="-860" as="targetPoint" />
            <Array as="points">
              <mxPoint x="-5380" y="-800" />
            </Array>
          </mxGeometry>
        </mxCell>
        <mxCell id="TbKJERnAUOHFU8CwP56J-155" value="GPA0[0]" style="text;html=1;align=center;verticalAlign=middle;whiteSpace=wrap;rounded=0;" parent="1" vertex="1">
          <mxGeometry x="-5370" y="-820" width="60" height="20" as="geometry" />
        </mxCell>
        <mxCell id="TbKJERnAUOHFU8CwP56J-156" value="" style="endArrow=classic;html=1;rounded=0;fontSize=12;startSize=8;endSize=8;exitX=0.5;exitY=1;exitDx=0;exitDy=0;entryX=0.5;entryY=0;entryDx=0;entryDy=0;" parent="1" source="TbKJERnAUOHFU8CwP56J-137" target="TbKJERnAUOHFU8CwP56J-138" edge="1">
          <mxGeometry width="50" height="50" relative="1" as="geometry">
            <mxPoint x="-5520" y="-930" as="sourcePoint" />
            <mxPoint x="-5470" y="-980" as="targetPoint" />
          </mxGeometry>
        </mxCell>
        <mxCell id="TbKJERnAUOHFU8CwP56J-157" value="" style="endArrow=classic;html=1;rounded=0;fontSize=12;startSize=8;endSize=8;exitX=0.5;exitY=1;exitDx=0;exitDy=0;entryX=0.5;entryY=0;entryDx=0;entryDy=0;" parent="1" edge="1">
          <mxGeometry width="50" height="50" relative="1" as="geometry">
            <mxPoint x="-5200.71" y="-920" as="sourcePoint" />
            <mxPoint x="-5200.71" y="-840" as="targetPoint" />
          </mxGeometry>
        </mxCell>
        <mxCell id="TbKJERnAUOHFU8CwP56J-158" value="PTE2.PPN" style="text;html=1;align=center;verticalAlign=middle;whiteSpace=wrap;rounded=0;" parent="1" vertex="1">
          <mxGeometry x="-5190" y="-1040" width="60" height="30" as="geometry" />
        </mxCell>
        <mxCell id="TbKJERnAUOHFU8CwP56J-159" value="PTE1.PPN" style="text;html=1;align=center;verticalAlign=middle;whiteSpace=wrap;rounded=0;" parent="1" vertex="1">
          <mxGeometry x="-5190" y="-880" width="60" height="30" as="geometry" />
        </mxCell>
        <mxCell id="TbKJERnAUOHFU8CwP56J-160" value="" style="whiteSpace=wrap;html=1;aspect=fixed;fillColor=#dae8fc;strokeColor=#6c8ebf;" parent="1" vertex="1">
          <mxGeometry x="-5240" y="-680" width="80" height="80" as="geometry" />
        </mxCell>
        <mxCell id="TbKJERnAUOHFU8CwP56J-161" value="" style="endArrow=classic;html=1;rounded=0;fontSize=12;startSize=8;endSize=8;exitX=0.5;exitY=1;exitDx=0;exitDy=0;entryX=0.5;entryY=0;entryDx=0;entryDy=0;" parent="1" edge="1">
          <mxGeometry width="50" height="50" relative="1" as="geometry">
            <mxPoint x="-5200.71" y="-760" as="sourcePoint" />
            <mxPoint x="-5200.71" y="-680" as="targetPoint" />
          </mxGeometry>
        </mxCell>
        <mxCell id="TbKJERnAUOHFU8CwP56J-162" value="PTE0.PPN" style="text;html=1;align=center;verticalAlign=middle;whiteSpace=wrap;rounded=0;" parent="1" vertex="1">
          <mxGeometry x="-5190" y="-730" width="60" height="30" as="geometry" />
        </mxCell>
        <mxCell id="TbKJERnAUOHFU8CwP56J-163" value="" style="endArrow=classic;html=1;rounded=0;fontSize=12;startSize=8;endSize=8;" parent="1" edge="1">
          <mxGeometry width="50" height="50" relative="1" as="geometry">
            <mxPoint x="-5380" y="-800" as="sourcePoint" />
            <mxPoint x="-5240" y="-640" as="targetPoint" />
            <Array as="points">
              <mxPoint x="-5380" y="-640" />
            </Array>
          </mxGeometry>
        </mxCell>
        <mxCell id="TbKJERnAUOHFU8CwP56J-164" value="GPA0.offset" style="text;html=1;align=center;verticalAlign=middle;whiteSpace=wrap;rounded=0;" parent="1" vertex="1">
          <mxGeometry x="-5370" y="-660" width="60" height="20" as="geometry" />
        </mxCell>
        <mxCell id="TbKJERnAUOHFU8CwP56J-165" value="HPA" style="rounded=0;whiteSpace=wrap;html=1;fillColor=#647687;fontColor=#ffffff;strokeColor=#314354;" parent="1" vertex="1">
          <mxGeometry x="-5240" y="-650" width="80" height="30" as="geometry" />
        </mxCell>
        <mxCell id="TbKJERnAUOHFU8CwP56J-166" value="&lt;b&gt;&lt;font style=&quot;font-size: 20px;&quot;&gt;VSATP: bare&amp;nbsp; &amp;nbsp; &amp;nbsp; &amp;nbsp;HGATP : sv48x4&lt;/font&gt;&lt;/b&gt;" style="text;html=1;align=center;verticalAlign=middle;whiteSpace=wrap;rounded=0;fontSize=16;" parent="1" vertex="1">
          <mxGeometry x="-5529" y="-1640" width="470" height="30" as="geometry" />
        </mxCell>
        <mxCell id="TbKJERnAUOHFU8CwP56J-171" value="" style="whiteSpace=wrap;html=1;aspect=fixed;fillColor=#dae8fc;strokeColor=#6c8ebf;" parent="1" vertex="1">
          <mxGeometry x="-5240" y="-1320" width="80" height="80" as="geometry" />
        </mxCell>
        <mxCell id="TbKJERnAUOHFU8CwP56J-172" value="GPA0[3]" style="text;html=1;align=center;verticalAlign=middle;whiteSpace=wrap;rounded=0;" parent="1" vertex="1">
          <mxGeometry x="-5370" y="-1300" width="60" height="20" as="geometry" />
        </mxCell>
        <mxCell id="TbKJERnAUOHFU8CwP56J-173" value="" style="endArrow=classic;html=1;rounded=0;fontSize=12;startSize=8;endSize=8;exitX=0.5;exitY=1;exitDx=0;exitDy=0;entryX=0.5;entryY=0;entryDx=0;entryDy=0;" parent="1" source="TbKJERnAUOHFU8CwP56J-171" edge="1">
          <mxGeometry width="50" height="50" relative="1" as="geometry">
            <mxPoint x="-5520" y="-1090" as="sourcePoint" />
            <mxPoint x="-5200" y="-1160" as="targetPoint" />
          </mxGeometry>
        </mxCell>
        <mxCell id="TbKJERnAUOHFU8CwP56J-174" value="PTE3.PPN" style="text;html=1;align=center;verticalAlign=middle;whiteSpace=wrap;rounded=0;" parent="1" vertex="1">
          <mxGeometry x="-5190" y="-1200" width="60" height="30" as="geometry" />
        </mxCell>
        <mxCell id="TbKJERnAUOHFU8CwP56J-176" value="" style="endArrow=classic;html=1;rounded=0;fontSize=12;startSize=8;endSize=8;entryX=0;entryY=0.5;entryDx=0;entryDy=0;" parent="1" target="TbKJERnAUOHFU8CwP56J-137" edge="1">
          <mxGeometry width="50" height="50" relative="1" as="geometry">
            <mxPoint x="-5380" y="-1280" as="sourcePoint" />
            <mxPoint x="-5020" y="-1130" as="targetPoint" />
            <Array as="points">
              <mxPoint x="-5380" y="-1120" />
            </Array>
          </mxGeometry>
        </mxCell>
        <mxCell id="TbKJERnAUOHFU8CwP56J-177" value="HGATP = 0&amp;nbsp;&lt;br style=&quot;border-color: var(--border-color);&quot;&gt;so&lt;br style=&quot;border-color: var(--border-color);&quot;&gt;" style="whiteSpace=wrap;html=1;aspect=fixed;fillColor=#dae8fc;strokeColor=#6c8ebf;verticalAlign=top;" parent="1" vertex="1">
          <mxGeometry x="-3870" y="-1200" width="80" height="80" as="geometry" />
        </mxCell>
        <mxCell id="TbKJERnAUOHFU8CwP56J-178" value="HGATP" style="shape=table;startSize=40;container=1;collapsible=0;childLayout=tableLayout;fillColor=#dae8fc;strokeColor=#6c8ebf;" parent="1" vertex="1">
          <mxGeometry x="-4690" y="-1480" width="60" height="120" as="geometry" />
        </mxCell>
        <mxCell id="TbKJERnAUOHFU8CwP56J-179" value="" style="shape=tableRow;horizontal=0;startSize=0;swimlaneHead=0;swimlaneBody=0;strokeColor=inherit;top=0;left=0;bottom=0;right=0;collapsible=0;dropTarget=0;fillColor=none;points=[[0,0.5],[1,0.5]];portConstraint=eastwest;" parent="TbKJERnAUOHFU8CwP56J-178" vertex="1">
          <mxGeometry y="40" width="60" height="40" as="geometry" />
        </mxCell>
        <mxCell id="TbKJERnAUOHFU8CwP56J-180" value="VSATP" style="shape=partialRectangle;html=1;whiteSpace=wrap;connectable=0;strokeColor=#d6b656;overflow=hidden;fillColor=#fff2cc;top=0;left=0;bottom=0;right=0;pointerEvents=1;" parent="TbKJERnAUOHFU8CwP56J-179" vertex="1">
          <mxGeometry width="60" height="40" as="geometry">
            <mxRectangle width="60" height="40" as="alternateBounds" />
          </mxGeometry>
        </mxCell>
        <mxCell id="TbKJERnAUOHFU8CwP56J-181" value="" style="shape=tableRow;horizontal=0;startSize=0;swimlaneHead=0;swimlaneBody=0;strokeColor=inherit;top=0;left=0;bottom=0;right=0;collapsible=0;dropTarget=0;fillColor=none;points=[[0,0.5],[1,0.5]];portConstraint=eastwest;" parent="TbKJERnAUOHFU8CwP56J-178" vertex="1">
          <mxGeometry y="80" width="60" height="40" as="geometry" />
        </mxCell>
        <mxCell id="TbKJERnAUOHFU8CwP56J-182" value="GVA" style="shape=partialRectangle;html=1;whiteSpace=wrap;connectable=0;strokeColor=#b85450;overflow=hidden;fillColor=#f8cecc;top=0;left=0;bottom=0;right=0;pointerEvents=1;" parent="TbKJERnAUOHFU8CwP56J-181" vertex="1">
          <mxGeometry width="60" height="40" as="geometry">
            <mxRectangle width="60" height="40" as="alternateBounds" />
          </mxGeometry>
        </mxCell>
        <mxCell id="TbKJERnAUOHFU8CwP56J-183" value="" style="endArrow=classic;html=1;rounded=0;fontSize=12;startSize=8;endSize=8;entryX=0.5;entryY=0;entryDx=0;entryDy=0;exitX=1.069;exitY=0.189;exitDx=0;exitDy=0;exitPerimeter=0;" parent="1" source="TbKJERnAUOHFU8CwP56J-178" target="TbKJERnAUOHFU8CwP56J-177" edge="1">
          <mxGeometry width="50" height="50" relative="1" as="geometry">
            <mxPoint x="-4200" y="-1460" as="sourcePoint" />
            <mxPoint x="-3810" y="-1280" as="targetPoint" />
            <Array as="points">
              <mxPoint x="-3830" y="-1460" />
            </Array>
          </mxGeometry>
        </mxCell>
        <mxCell id="TbKJERnAUOHFU8CwP56J-184" value="" style="endArrow=classic;html=1;rounded=0;fontSize=12;startSize=8;endSize=8;entryX=0;entryY=0.5;entryDx=0;entryDy=0;exitX=0.351;exitY=1.017;exitDx=0;exitDy=0;exitPerimeter=0;" parent="1" source="TbKJERnAUOHFU8CwP56J-188" target="TbKJERnAUOHFU8CwP56J-177" edge="1">
          <mxGeometry width="50" height="50" relative="1" as="geometry">
            <mxPoint x="-4020" y="-1240" as="sourcePoint" />
            <mxPoint x="-3850" y="-1300" as="targetPoint" />
            <Array as="points">
              <mxPoint x="-4021" y="-1160" />
            </Array>
          </mxGeometry>
        </mxCell>
        <mxCell id="TbKJERnAUOHFU8CwP56J-185" value="GPA1" style="text;html=1;align=center;verticalAlign=middle;whiteSpace=wrap;rounded=0;" parent="1" vertex="1">
          <mxGeometry x="-3970" y="-1180" width="60" height="20" as="geometry" />
        </mxCell>
        <mxCell id="TbKJERnAUOHFU8CwP56J-186" value="" style="endArrow=classic;html=1;rounded=0;fontSize=12;startSize=8;endSize=8;exitX=1;exitY=0.5;exitDx=0;exitDy=0;entryX=0;entryY=0.5;entryDx=0;entryDy=0;" parent="1" source="TbKJERnAUOHFU8CwP56J-181" target="TbKJERnAUOHFU8CwP56J-212" edge="1">
          <mxGeometry width="50" height="50" relative="1" as="geometry">
            <mxPoint x="-4229.34" y="-1348.44" as="sourcePoint" />
            <mxPoint x="-2920" y="-1380" as="targetPoint" />
            <Array as="points">
              <mxPoint x="-3750" y="-1380" />
              <mxPoint x="-2920" y="-1380" />
              <mxPoint x="-2920" y="-1285" />
            </Array>
          </mxGeometry>
        </mxCell>
        <mxCell id="TbKJERnAUOHFU8CwP56J-187" value="&lt;b&gt;&lt;font style=&quot;font-size: 20px;&quot;&gt;VSATP: sv39&amp;nbsp; &amp;nbsp; &amp;nbsp; &amp;nbsp;HGATP : bare&lt;/font&gt;&lt;/b&gt;" style="text;html=1;align=center;verticalAlign=middle;whiteSpace=wrap;rounded=0;fontSize=16;" parent="1" vertex="1">
          <mxGeometry x="-4800" y="-1580" width="470" height="30" as="geometry" />
        </mxCell>
        <mxCell id="TbKJERnAUOHFU8CwP56J-188" value="&lt;div style=&quot;border-color: var(--border-color); text-align: left;&quot;&gt;&lt;/div&gt;&lt;span style=&quot;border-color: var(--border-color); background-color: initial;&quot;&gt;&lt;/span&gt;&lt;div style=&quot;border-color: var(--border-color); text-align: left;&quot;&gt;&lt;span style=&quot;border-color: var(--border-color); background-color: initial;&quot;&gt;&lt;b&gt;GPA of entry in VS-stage&lt;/b&gt;&lt;/span&gt;&lt;/div&gt;&lt;div style=&quot;border-color: var(--border-color); text-align: left;&quot;&gt;&lt;span style=&quot;border-color: var(--border-color); background-color: initial;&quot;&gt;&lt;b&gt;next level page table&lt;/b&gt;&lt;/span&gt;&lt;/div&gt;&lt;div style=&quot;border-color: var(--border-color); text-align: left;&quot;&gt;&lt;span style=&quot;border-color: var(--border-color); background-color: initial;&quot;&gt;&lt;b&gt;&lt;br&gt;&lt;/b&gt;&lt;/span&gt;&lt;/div&gt;&lt;div style=&quot;border-color: var(--border-color); text-align: left;&quot;&gt;&lt;span style=&quot;border-color: var(--border-color); background-color: initial;&quot;&gt;{GVA.VPN[2],gPTE3.PPN} =&amp;gt; GPA1&lt;/span&gt;&lt;/div&gt;" style="rounded=0;whiteSpace=wrap;html=1;verticalAlign=top;fillColor=#fff2cc;strokeColor=#d6b656;" parent="1" vertex="1">
          <mxGeometry x="-4090" y="-1320" width="200" height="70" as="geometry" />
        </mxCell>
        <mxCell id="TbKJERnAUOHFU8CwP56J-189" value="HPA2 = GPA1" style="rounded=0;whiteSpace=wrap;html=1;fillColor=#647687;fontColor=#ffffff;strokeColor=#314354;" parent="1" vertex="1">
          <mxGeometry x="-3870" y="-1160" width="80" height="30" as="geometry" />
        </mxCell>
        <mxCell id="TbKJERnAUOHFU8CwP56J-190" value="&lt;div style=&quot;border-color: var(--border-color); text-align: left;&quot;&gt;&lt;/div&gt;&lt;span style=&quot;border-color: var(--border-color); background-color: initial;&quot;&gt;&lt;/span&gt;&lt;div style=&quot;border-color: var(--border-color); text-align: left;&quot;&gt;&lt;span style=&quot;border-color: var(--border-color); background-color: initial;&quot;&gt;&lt;b&gt;GPA of entry in VS-stage&lt;/b&gt;&lt;/span&gt;&lt;/div&gt;&lt;div style=&quot;border-color: var(--border-color); text-align: left;&quot;&gt;&lt;span style=&quot;border-color: var(--border-color); background-color: initial;&quot;&gt;&lt;b&gt;next level page table&lt;/b&gt;&lt;/span&gt;&lt;/div&gt;&lt;div style=&quot;border-color: var(--border-color); text-align: left;&quot;&gt;&lt;span style=&quot;background-color: initial;&quot;&gt;&lt;br&gt;&lt;/span&gt;&lt;/div&gt;&lt;div style=&quot;border-color: var(--border-color); text-align: left;&quot;&gt;&lt;span style=&quot;background-color: initial;&quot;&gt;{GVA.VPN[1],gpte2.PPN}=&amp;gt; GPA2&lt;/span&gt;&lt;br&gt;&lt;/div&gt;" style="rounded=0;whiteSpace=wrap;html=1;verticalAlign=top;fillColor=#fff2cc;strokeColor=#d6b656;" parent="1" vertex="1">
          <mxGeometry x="-3670" y="-1320" width="200" height="70" as="geometry" />
        </mxCell>
        <mxCell id="TbKJERnAUOHFU8CwP56J-191" value="GVA.VPN[2]" style="text;html=1;align=center;verticalAlign=middle;whiteSpace=wrap;rounded=0;" parent="1" vertex="1">
          <mxGeometry x="-4170" y="-1280" width="60" height="20" as="geometry" />
        </mxCell>
        <mxCell id="TbKJERnAUOHFU8CwP56J-192" value="" style="endArrow=classic;html=1;rounded=0;fontSize=12;startSize=8;endSize=8;entryX=0;entryY=0.5;entryDx=0;entryDy=0;" parent="1" target="TbKJERnAUOHFU8CwP56J-188" edge="1">
          <mxGeometry width="50" height="50" relative="1" as="geometry">
            <mxPoint x="-4180" y="-1380" as="sourcePoint" />
            <mxPoint x="-3880" y="-1300" as="targetPoint" />
            <Array as="points">
              <mxPoint x="-4180" y="-1285" />
            </Array>
          </mxGeometry>
        </mxCell>
        <mxCell id="TbKJERnAUOHFU8CwP56J-193" value="" style="endArrow=classic;html=1;rounded=0;fontSize=12;startSize=8;endSize=8;exitX=1;exitY=0.5;exitDx=0;exitDy=0;entryX=0.449;entryY=-0.037;entryDx=0;entryDy=0;entryPerimeter=0;" parent="1" source="TbKJERnAUOHFU8CwP56J-178" target="TbKJERnAUOHFU8CwP56J-225" edge="1">
          <mxGeometry width="50" height="50" relative="1" as="geometry">
            <mxPoint x="-3930" y="-1280" as="sourcePoint" />
            <mxPoint x="-3880" y="-1330" as="targetPoint" />
            <Array as="points">
              <mxPoint x="-4400" y="-1420" />
            </Array>
          </mxGeometry>
        </mxCell>
        <mxCell id="TbKJERnAUOHFU8CwP56J-194" value="GVA.VPN[1]" style="text;html=1;align=center;verticalAlign=middle;whiteSpace=wrap;rounded=0;" parent="1" vertex="1">
          <mxGeometry x="-3740" y="-1280" width="60" height="20" as="geometry" />
        </mxCell>
        <mxCell id="TbKJERnAUOHFU8CwP56J-195" value="" style="endArrow=classic;html=1;rounded=0;fontSize=12;startSize=8;endSize=8;entryX=0;entryY=0.5;entryDx=0;entryDy=0;" parent="1" target="TbKJERnAUOHFU8CwP56J-190" edge="1">
          <mxGeometry width="50" height="50" relative="1" as="geometry">
            <mxPoint x="-3740" y="-1380" as="sourcePoint" />
            <mxPoint x="-3880" y="-1330" as="targetPoint" />
            <Array as="points">
              <mxPoint x="-3740" y="-1285" />
            </Array>
          </mxGeometry>
        </mxCell>
        <mxCell id="TbKJERnAUOHFU8CwP56J-196" value="HGATP = 0&amp;nbsp;&lt;br style=&quot;border-color: var(--border-color);&quot;&gt;so&lt;br style=&quot;border-color: var(--border-color);&quot;&gt;" style="whiteSpace=wrap;html=1;aspect=fixed;fillColor=#dae8fc;strokeColor=#6c8ebf;verticalAlign=top;" parent="1" vertex="1">
          <mxGeometry x="-3420" y="-1200" width="80" height="80" as="geometry" />
        </mxCell>
        <mxCell id="TbKJERnAUOHFU8CwP56J-197" value="" style="endArrow=classic;html=1;rounded=0;fontSize=12;startSize=8;endSize=8;entryX=0;entryY=0.5;entryDx=0;entryDy=0;" parent="1" edge="1">
          <mxGeometry width="50" height="50" relative="1" as="geometry">
            <mxPoint x="-3580" y="-1250" as="sourcePoint" />
            <mxPoint x="-3420" y="-1160" as="targetPoint" />
            <Array as="points">
              <mxPoint x="-3580" y="-1160" />
            </Array>
          </mxGeometry>
        </mxCell>
        <mxCell id="TbKJERnAUOHFU8CwP56J-198" value="GPA2" style="text;html=1;align=center;verticalAlign=middle;whiteSpace=wrap;rounded=0;" parent="1" vertex="1">
          <mxGeometry x="-3520" y="-1186.5" width="60" height="20" as="geometry" />
        </mxCell>
        <mxCell id="TbKJERnAUOHFU8CwP56J-199" value="HPA1 = GPA2" style="rounded=0;whiteSpace=wrap;html=1;fillColor=#647687;fontColor=#ffffff;strokeColor=#314354;" parent="1" vertex="1">
          <mxGeometry x="-3420" y="-1160" width="80" height="30" as="geometry" />
        </mxCell>
        <mxCell id="TbKJERnAUOHFU8CwP56J-200" value="&lt;div style=&quot;border-color: var(--border-color); text-align: left;&quot;&gt;&lt;/div&gt;&lt;span style=&quot;border-color: var(--border-color); background-color: initial;&quot;&gt;&lt;/span&gt;&lt;div style=&quot;border-color: var(--border-color); text-align: left;&quot;&gt;&lt;span style=&quot;border-color: var(--border-color); background-color: initial;&quot;&gt;&lt;b&gt;GPA of entry in VS-stage&lt;/b&gt;&lt;/span&gt;&lt;/div&gt;&lt;div style=&quot;border-color: var(--border-color); text-align: left;&quot;&gt;&lt;span style=&quot;border-color: var(--border-color); background-color: initial;&quot;&gt;&lt;b&gt;next level page table&lt;/b&gt;&lt;/span&gt;&lt;/div&gt;&lt;div style=&quot;border-color: var(--border-color); text-align: left;&quot;&gt;&lt;span style=&quot;border-color: var(--border-color); background-color: initial;&quot;&gt;&lt;b&gt;&lt;br&gt;&lt;/b&gt;&lt;/span&gt;&lt;/div&gt;&lt;div style=&quot;border-color: var(--border-color); text-align: left;&quot;&gt;&lt;span style=&quot;border-color: var(--border-color); background-color: initial;&quot;&gt;{GVA.VPN[0],gPTE1.PPN} =&amp;gt; GPA3&lt;/span&gt;&lt;/div&gt;" style="rounded=0;whiteSpace=wrap;html=1;verticalAlign=top;fillColor=#fff2cc;strokeColor=#d6b656;" parent="1" vertex="1">
          <mxGeometry x="-3260" y="-1320" width="200" height="70" as="geometry" />
        </mxCell>
        <mxCell id="TbKJERnAUOHFU8CwP56J-201" value="GVA.VPN[0]" style="text;html=1;align=center;verticalAlign=middle;whiteSpace=wrap;rounded=0;" parent="1" vertex="1">
          <mxGeometry x="-3330" y="-1280" width="60" height="20" as="geometry" />
        </mxCell>
        <mxCell id="TbKJERnAUOHFU8CwP56J-202" value="" style="endArrow=classic;html=1;rounded=0;fontSize=12;startSize=8;endSize=8;entryX=0;entryY=0.5;entryDx=0;entryDy=0;" parent="1" target="TbKJERnAUOHFU8CwP56J-200" edge="1">
          <mxGeometry width="50" height="50" relative="1" as="geometry">
            <mxPoint x="-3330" y="-1380" as="sourcePoint" />
            <mxPoint x="-3470" y="-1330" as="targetPoint" />
            <Array as="points">
              <mxPoint x="-3330" y="-1285" />
            </Array>
          </mxGeometry>
        </mxCell>
        <mxCell id="TbKJERnAUOHFU8CwP56J-203" value="HGATP = 0&amp;nbsp;&lt;br style=&quot;border-color: var(--border-color);&quot;&gt;so&lt;br style=&quot;border-color: var(--border-color);&quot;&gt;" style="whiteSpace=wrap;html=1;aspect=fixed;fillColor=#dae8fc;strokeColor=#6c8ebf;verticalAlign=top;" parent="1" vertex="1">
          <mxGeometry x="-3010" y="-1200" width="80" height="80" as="geometry" />
        </mxCell>
        <mxCell id="TbKJERnAUOHFU8CwP56J-204" value="" style="endArrow=classic;html=1;rounded=0;fontSize=12;startSize=8;endSize=8;entryX=0;entryY=0.5;entryDx=0;entryDy=0;" parent="1" edge="1">
          <mxGeometry width="50" height="50" relative="1" as="geometry">
            <mxPoint x="-3170" y="-1250" as="sourcePoint" />
            <mxPoint x="-3010" y="-1160" as="targetPoint" />
            <Array as="points">
              <mxPoint x="-3170" y="-1160" />
            </Array>
          </mxGeometry>
        </mxCell>
        <mxCell id="TbKJERnAUOHFU8CwP56J-205" value="GPA3" style="text;html=1;align=center;verticalAlign=middle;whiteSpace=wrap;rounded=0;" parent="1" vertex="1">
          <mxGeometry x="-3110" y="-1186.5" width="60" height="20" as="geometry" />
        </mxCell>
        <mxCell id="TbKJERnAUOHFU8CwP56J-206" value="HPA0 = GPA3" style="rounded=0;whiteSpace=wrap;html=1;fillColor=#647687;fontColor=#ffffff;strokeColor=#314354;" parent="1" vertex="1">
          <mxGeometry x="-3010" y="-1160" width="80" height="30" as="geometry" />
        </mxCell>
        <mxCell id="TbKJERnAUOHFU8CwP56J-207" value="" style="endArrow=classic;html=1;rounded=0;fontSize=12;startSize=8;endSize=8;entryX=0.5;entryY=0;entryDx=0;entryDy=0;" parent="1" target="TbKJERnAUOHFU8CwP56J-196" edge="1">
          <mxGeometry width="50" height="50" relative="1" as="geometry">
            <mxPoint x="-3830" y="-1460" as="sourcePoint" />
            <mxPoint x="-3700" y="-1260" as="targetPoint" />
            <Array as="points">
              <mxPoint x="-3380" y="-1460" />
            </Array>
          </mxGeometry>
        </mxCell>
        <mxCell id="TbKJERnAUOHFU8CwP56J-208" value="" style="endArrow=classic;html=1;rounded=0;fontSize=12;startSize=8;endSize=8;exitX=1;exitY=0.5;exitDx=0;exitDy=0;" parent="1" source="TbKJERnAUOHFU8CwP56J-189" edge="1">
          <mxGeometry width="50" height="50" relative="1" as="geometry">
            <mxPoint x="-3800" y="-1210" as="sourcePoint" />
            <mxPoint x="-3649" y="-1250" as="targetPoint" />
            <Array as="points">
              <mxPoint x="-3649" y="-1145" />
            </Array>
          </mxGeometry>
        </mxCell>
        <mxCell id="TbKJERnAUOHFU8CwP56J-209" value="gPTE2" style="text;html=1;align=center;verticalAlign=middle;whiteSpace=wrap;rounded=0;" parent="1" vertex="1">
          <mxGeometry x="-3740" y="-1166.5" width="60" height="20" as="geometry" />
        </mxCell>
        <mxCell id="TbKJERnAUOHFU8CwP56J-210" value="" style="endArrow=classic;html=1;rounded=0;fontSize=12;startSize=8;endSize=8;exitX=1;exitY=0.5;exitDx=0;exitDy=0;" parent="1" source="TbKJERnAUOHFU8CwP56J-199" edge="1">
          <mxGeometry width="50" height="50" relative="1" as="geometry">
            <mxPoint x="-3360" y="-1145" as="sourcePoint" />
            <mxPoint x="-3219" y="-1250" as="targetPoint" />
            <Array as="points">
              <mxPoint x="-3219" y="-1145" />
            </Array>
          </mxGeometry>
        </mxCell>
        <mxCell id="TbKJERnAUOHFU8CwP56J-211" value="gPTE1" style="text;html=1;align=center;verticalAlign=middle;whiteSpace=wrap;rounded=0;" parent="1" vertex="1">
          <mxGeometry x="-3310" y="-1166.5" width="60" height="20" as="geometry" />
        </mxCell>
        <mxCell id="TbKJERnAUOHFU8CwP56J-212" value="&lt;div style=&quot;border-color: var(--border-color); text-align: left;&quot;&gt;&lt;/div&gt;&lt;span style=&quot;border-color: var(--border-color); background-color: initial;&quot;&gt;&lt;/span&gt;&lt;div style=&quot;border-color: var(--border-color); text-align: left;&quot;&gt;&lt;span style=&quot;border-color: var(--border-color); background-color: initial;&quot;&gt;&lt;b&gt;GPA of entry in VS-stage&lt;/b&gt;&lt;/span&gt;&lt;/div&gt;&lt;div style=&quot;border-color: var(--border-color); text-align: left;&quot;&gt;&lt;span style=&quot;border-color: var(--border-color); background-color: initial;&quot;&gt;&lt;b&gt;next level page table&lt;/b&gt;&lt;/span&gt;&lt;/div&gt;&lt;div style=&quot;border-color: var(--border-color); text-align: left;&quot;&gt;&lt;span style=&quot;border-color: var(--border-color); background-color: initial;&quot;&gt;&lt;b&gt;&lt;br&gt;&lt;/b&gt;&lt;/span&gt;&lt;/div&gt;&lt;div style=&quot;border-color: var(--border-color); text-align: left;&quot;&gt;&lt;span style=&quot;border-color: var(--border-color); background-color: initial;&quot;&gt;{GVA.offset,gPTE0.PPN} =&amp;gt; GPA4&lt;/span&gt;&lt;/div&gt;" style="rounded=0;whiteSpace=wrap;html=1;verticalAlign=top;fillColor=#fff2cc;strokeColor=#d6b656;" parent="1" vertex="1">
          <mxGeometry x="-2850" y="-1320" width="190" height="70" as="geometry" />
        </mxCell>
        <mxCell id="TbKJERnAUOHFU8CwP56J-213" value="GVA.offset" style="text;html=1;align=center;verticalAlign=middle;whiteSpace=wrap;rounded=0;" parent="1" vertex="1">
          <mxGeometry x="-2920" y="-1280" width="60" height="20" as="geometry" />
        </mxCell>
        <mxCell id="TbKJERnAUOHFU8CwP56J-214" value="HGATP = 0&amp;nbsp;&lt;br style=&quot;border-color: var(--border-color);&quot;&gt;so&lt;br style=&quot;border-color: var(--border-color);&quot;&gt;" style="whiteSpace=wrap;html=1;aspect=fixed;fillColor=#dae8fc;strokeColor=#6c8ebf;verticalAlign=top;" parent="1" vertex="1">
          <mxGeometry x="-2600" y="-1200" width="80" height="80" as="geometry" />
        </mxCell>
        <mxCell id="TbKJERnAUOHFU8CwP56J-215" value="" style="endArrow=classic;html=1;rounded=0;fontSize=12;startSize=8;endSize=8;entryX=0;entryY=0.5;entryDx=0;entryDy=0;exitX=0.5;exitY=1;exitDx=0;exitDy=0;" parent="1" source="TbKJERnAUOHFU8CwP56J-212" edge="1">
          <mxGeometry width="50" height="50" relative="1" as="geometry">
            <mxPoint x="-2751" y="-1243.5" as="sourcePoint" />
            <mxPoint x="-2600" y="-1160" as="targetPoint" />
            <Array as="points">
              <mxPoint x="-2755" y="-1160" />
            </Array>
          </mxGeometry>
        </mxCell>
        <mxCell id="TbKJERnAUOHFU8CwP56J-216" value="GPA4" style="text;html=1;align=center;verticalAlign=middle;whiteSpace=wrap;rounded=0;" parent="1" vertex="1">
          <mxGeometry x="-2700" y="-1186.5" width="60" height="20" as="geometry" />
        </mxCell>
        <mxCell id="TbKJERnAUOHFU8CwP56J-217" value="HPA&amp;nbsp; = GPA4" style="rounded=0;whiteSpace=wrap;html=1;fillColor=#0050ef;strokeColor=#001DBC;fontColor=#ffffff;" parent="1" vertex="1">
          <mxGeometry x="-2600" y="-1160" width="80" height="30" as="geometry" />
        </mxCell>
        <mxCell id="TbKJERnAUOHFU8CwP56J-218" value="" style="endArrow=classic;html=1;rounded=0;fontSize=12;startSize=8;endSize=8;exitX=1;exitY=0.5;exitDx=0;exitDy=0;" parent="1" edge="1">
          <mxGeometry width="50" height="50" relative="1" as="geometry">
            <mxPoint x="-2930" y="-1145" as="sourcePoint" />
            <mxPoint x="-2809" y="-1250" as="targetPoint" />
            <Array as="points">
              <mxPoint x="-2809" y="-1145" />
            </Array>
          </mxGeometry>
        </mxCell>
        <mxCell id="TbKJERnAUOHFU8CwP56J-219" value="gPTE0" style="text;html=1;align=center;verticalAlign=middle;whiteSpace=wrap;rounded=0;" parent="1" vertex="1">
          <mxGeometry x="-2900" y="-1166.5" width="60" height="20" as="geometry" />
        </mxCell>
        <mxCell id="TbKJERnAUOHFU8CwP56J-220" value="" style="endArrow=classic;html=1;rounded=0;fontSize=12;startSize=8;endSize=8;entryX=0.5;entryY=0;entryDx=0;entryDy=0;" parent="1" edge="1">
          <mxGeometry width="50" height="50" relative="1" as="geometry">
            <mxPoint x="-3380" y="-1460" as="sourcePoint" />
            <mxPoint x="-2970" y="-1200" as="targetPoint" />
            <Array as="points">
              <mxPoint x="-2970" y="-1460" />
            </Array>
          </mxGeometry>
        </mxCell>
        <mxCell id="TbKJERnAUOHFU8CwP56J-221" value="" style="endArrow=classic;html=1;rounded=0;fontSize=12;startSize=8;endSize=8;entryX=0.5;entryY=0;entryDx=0;entryDy=0;" parent="1" edge="1">
          <mxGeometry width="50" height="50" relative="1" as="geometry">
            <mxPoint x="-2970" y="-1460" as="sourcePoint" />
            <mxPoint x="-2560" y="-1200" as="targetPoint" />
            <Array as="points">
              <mxPoint x="-2560" y="-1460" />
            </Array>
          </mxGeometry>
        </mxCell>
        <mxCell id="TbKJERnAUOHFU8CwP56J-222" value="HGATP = 0&amp;nbsp;&lt;br style=&quot;border-color: var(--border-color);&quot;&gt;so&lt;br style=&quot;border-color: var(--border-color);&quot;&gt;" style="whiteSpace=wrap;html=1;aspect=fixed;fillColor=#dae8fc;strokeColor=#6c8ebf;verticalAlign=top;" parent="1" vertex="1">
          <mxGeometry x="-4270" y="-1200" width="80" height="80" as="geometry" />
        </mxCell>
        <mxCell id="TbKJERnAUOHFU8CwP56J-223" value="" style="endArrow=classic;html=1;rounded=0;fontSize=12;startSize=8;endSize=8;entryX=0;entryY=0.5;entryDx=0;entryDy=0;exitX=0.351;exitY=1.017;exitDx=0;exitDy=0;exitPerimeter=0;" parent="1" source="TbKJERnAUOHFU8CwP56J-225" target="TbKJERnAUOHFU8CwP56J-222" edge="1">
          <mxGeometry width="50" height="50" relative="1" as="geometry">
            <mxPoint x="-4420" y="-1240" as="sourcePoint" />
            <mxPoint x="-4250" y="-1300" as="targetPoint" />
            <Array as="points">
              <mxPoint x="-4421" y="-1160" />
            </Array>
          </mxGeometry>
        </mxCell>
        <mxCell id="TbKJERnAUOHFU8CwP56J-224" value="GPA0" style="text;html=1;align=center;verticalAlign=middle;whiteSpace=wrap;rounded=0;" parent="1" vertex="1">
          <mxGeometry x="-4370" y="-1180" width="60" height="20" as="geometry" />
        </mxCell>
        <mxCell id="TbKJERnAUOHFU8CwP56J-225" value="&lt;div style=&quot;border-color: var(--border-color); text-align: left;&quot;&gt;&lt;/div&gt;&lt;span style=&quot;border-color: var(--border-color); background-color: initial;&quot;&gt;&lt;/span&gt;&lt;div style=&quot;border-color: var(--border-color); text-align: left;&quot;&gt;&lt;span style=&quot;border-color: var(--border-color); background-color: initial;&quot;&gt;&lt;b&gt;GPA of entry in VS-stage&lt;/b&gt;&lt;/span&gt;&lt;/div&gt;&lt;div style=&quot;border-color: var(--border-color); text-align: left;&quot;&gt;&lt;span style=&quot;border-color: var(--border-color); background-color: initial;&quot;&gt;&lt;b&gt;root page table&lt;/b&gt;&lt;/span&gt;&lt;/div&gt;&lt;div style=&quot;border-color: var(--border-color); text-align: left;&quot;&gt;&lt;span style=&quot;border-color: var(--border-color); background-color: initial;&quot;&gt;&lt;b&gt;&lt;br&gt;&lt;/b&gt;&lt;/span&gt;&lt;/div&gt;&lt;div style=&quot;border-color: var(--border-color); text-align: left;&quot;&gt;&lt;span style=&quot;border-color: var(--border-color); background-color: initial;&quot;&gt;{GVA.VPN[3],VSATP.PPN} =&amp;gt; GPA0&lt;/span&gt;&lt;/div&gt;" style="rounded=0;whiteSpace=wrap;html=1;verticalAlign=top;fillColor=#fff2cc;strokeColor=#d6b656;" parent="1" vertex="1">
          <mxGeometry x="-4490" y="-1320" width="200" height="70" as="geometry" />
        </mxCell>
        <mxCell id="TbKJERnAUOHFU8CwP56J-226" value="HPA3 = GPA0" style="rounded=0;whiteSpace=wrap;html=1;fillColor=#647687;fontColor=#ffffff;strokeColor=#314354;" parent="1" vertex="1">
          <mxGeometry x="-4270" y="-1160" width="80" height="30" as="geometry" />
        </mxCell>
        <mxCell id="TbKJERnAUOHFU8CwP56J-227" value="GVA.VPN[3]" style="text;html=1;align=center;verticalAlign=middle;whiteSpace=wrap;rounded=0;" parent="1" vertex="1">
          <mxGeometry x="-4570" y="-1280" width="60" height="20" as="geometry" />
        </mxCell>
        <mxCell id="TbKJERnAUOHFU8CwP56J-228" value="" style="endArrow=classic;html=1;rounded=0;fontSize=12;startSize=8;endSize=8;entryX=0;entryY=0.5;entryDx=0;entryDy=0;" parent="1" target="TbKJERnAUOHFU8CwP56J-225" edge="1">
          <mxGeometry width="50" height="50" relative="1" as="geometry">
            <mxPoint x="-4580" y="-1380" as="sourcePoint" />
            <mxPoint x="-4280" y="-1300" as="targetPoint" />
            <Array as="points">
              <mxPoint x="-4580" y="-1285" />
            </Array>
          </mxGeometry>
        </mxCell>
        <mxCell id="TbKJERnAUOHFU8CwP56J-229" value="" style="endArrow=classic;html=1;rounded=0;fontSize=12;startSize=8;endSize=8;exitX=1;exitY=0.25;exitDx=0;exitDy=0;" parent="1" source="TbKJERnAUOHFU8CwP56J-226" edge="1">
          <mxGeometry width="50" height="50" relative="1" as="geometry">
            <mxPoint x="-4180" y="-1146" as="sourcePoint" />
            <mxPoint x="-4059" y="-1251.5" as="targetPoint" />
            <Array as="points">
              <mxPoint x="-4059" y="-1152" />
            </Array>
          </mxGeometry>
        </mxCell>
        <mxCell id="TbKJERnAUOHFU8CwP56J-230" value="gPTE3" style="text;html=1;align=center;verticalAlign=middle;whiteSpace=wrap;rounded=0;" parent="1" vertex="1">
          <mxGeometry x="-4150" y="-1170" width="60" height="20" as="geometry" />
        </mxCell>
        <mxCell id="TbKJERnAUOHFU8CwP56J-234" value="" style="endArrow=classic;html=1;rounded=0;fontSize=12;startSize=8;endSize=8;entryX=0.5;entryY=0;entryDx=0;entryDy=0;" parent="1" target="TbKJERnAUOHFU8CwP56J-222" edge="1">
          <mxGeometry width="50" height="50" relative="1" as="geometry">
            <mxPoint x="-4230" y="-1460" as="sourcePoint" />
            <mxPoint x="-4030" y="-1200" as="targetPoint" />
          </mxGeometry>
        </mxCell>
        <mxCell id="Q2vNAMajYNCRpJ8Cx-mK-2" value="HGATP" style="shape=table;startSize=40;container=1;collapsible=0;childLayout=tableLayout;fillColor=#dae8fc;strokeColor=#6c8ebf;" vertex="1" parent="1">
          <mxGeometry x="-5390" y="-440" width="60" height="120" as="geometry" />
        </mxCell>
        <mxCell id="Q2vNAMajYNCRpJ8Cx-mK-3" value="" style="shape=tableRow;horizontal=0;startSize=0;swimlaneHead=0;swimlaneBody=0;strokeColor=inherit;top=0;left=0;bottom=0;right=0;collapsible=0;dropTarget=0;fillColor=none;points=[[0,0.5],[1,0.5]];portConstraint=eastwest;" vertex="1" parent="Q2vNAMajYNCRpJ8Cx-mK-2">
          <mxGeometry y="40" width="60" height="40" as="geometry" />
        </mxCell>
        <mxCell id="Q2vNAMajYNCRpJ8Cx-mK-4" value="VSATP" style="shape=partialRectangle;html=1;whiteSpace=wrap;connectable=0;strokeColor=#d6b656;overflow=hidden;fillColor=#fff2cc;top=0;left=0;bottom=0;right=0;pointerEvents=1;" vertex="1" parent="Q2vNAMajYNCRpJ8Cx-mK-3">
          <mxGeometry width="60" height="40" as="geometry">
            <mxRectangle width="60" height="40" as="alternateBounds" />
          </mxGeometry>
        </mxCell>
        <mxCell id="Q2vNAMajYNCRpJ8Cx-mK-5" value="" style="shape=tableRow;horizontal=0;startSize=0;swimlaneHead=0;swimlaneBody=0;strokeColor=inherit;top=0;left=0;bottom=0;right=0;collapsible=0;dropTarget=0;fillColor=none;points=[[0,0.5],[1,0.5]];portConstraint=eastwest;" vertex="1" parent="Q2vNAMajYNCRpJ8Cx-mK-2">
          <mxGeometry y="80" width="60" height="40" as="geometry" />
        </mxCell>
        <mxCell id="Q2vNAMajYNCRpJ8Cx-mK-6" value="GVA" style="shape=partialRectangle;html=1;whiteSpace=wrap;connectable=0;strokeColor=#b85450;overflow=hidden;fillColor=#f8cecc;top=0;left=0;bottom=0;right=0;pointerEvents=1;" vertex="1" parent="Q2vNAMajYNCRpJ8Cx-mK-5">
          <mxGeometry width="60" height="40" as="geometry">
            <mxRectangle width="60" height="40" as="alternateBounds" />
          </mxGeometry>
        </mxCell>
        <mxCell id="Q2vNAMajYNCRpJ8Cx-mK-7" value="" style="endArrow=classic;html=1;rounded=0;fontSize=12;startSize=8;endSize=8;entryX=0.5;entryY=0;entryDx=0;entryDy=0;" edge="1" parent="1">
          <mxGeometry width="50" height="50" relative="1" as="geometry">
            <mxPoint x="-5330" y="-420" as="sourcePoint" />
            <mxPoint x="-4530" y="-160" as="targetPoint" />
            <Array as="points">
              <mxPoint x="-4530" y="-420" />
            </Array>
          </mxGeometry>
        </mxCell>
        <mxCell id="Q2vNAMajYNCRpJ8Cx-mK-8" value="" style="endArrow=classic;html=1;rounded=0;fontSize=12;startSize=8;endSize=8;entryX=0;entryY=0.5;entryDx=0;entryDy=0;" edge="1" parent="1">
          <mxGeometry width="50" height="50" relative="1" as="geometry">
            <mxPoint x="-4710" y="-210" as="sourcePoint" />
            <mxPoint x="-4570" y="-120" as="targetPoint" />
            <Array as="points">
              <mxPoint x="-4710" y="-120" />
            </Array>
          </mxGeometry>
        </mxCell>
        <mxCell id="Q2vNAMajYNCRpJ8Cx-mK-10" value="" style="endArrow=classic;html=1;rounded=0;fontSize=12;startSize=8;endSize=8;exitX=1;exitY=0.5;exitDx=0;exitDy=0;entryX=0;entryY=0.5;entryDx=0;entryDy=0;" edge="1" parent="1" source="Q2vNAMajYNCRpJ8Cx-mK-5" target="Q2vNAMajYNCRpJ8Cx-mK-35">
          <mxGeometry width="50" height="50" relative="1" as="geometry">
            <mxPoint x="-4929.34" y="-308.44000000000005" as="sourcePoint" />
            <mxPoint x="-3620" y="-340" as="targetPoint" />
            <Array as="points">
              <mxPoint x="-4450" y="-340" />
              <mxPoint x="-3620" y="-340" />
              <mxPoint x="-3620" y="-245" />
            </Array>
          </mxGeometry>
        </mxCell>
        <mxCell id="Q2vNAMajYNCRpJ8Cx-mK-11" value="&lt;div style=&quot;border-color: var(--border-color); text-align: left;&quot;&gt;&lt;/div&gt;&lt;span style=&quot;border-color: var(--border-color); background-color: initial;&quot;&gt;&lt;/span&gt;&lt;div style=&quot;border-color: var(--border-color); text-align: left;&quot;&gt;&lt;span style=&quot;border-color: var(--border-color); background-color: initial;&quot;&gt;&lt;b&gt;GPA of entry in VS-stage&lt;/b&gt;&lt;/span&gt;&lt;/div&gt;&lt;div style=&quot;border-color: var(--border-color); text-align: left;&quot;&gt;&lt;span style=&quot;border-color: var(--border-color); background-color: initial;&quot;&gt;&lt;b&gt;next level page table&lt;/b&gt;&lt;/span&gt;&lt;/div&gt;&lt;div style=&quot;border-color: var(--border-color); text-align: left;&quot;&gt;&lt;span style=&quot;border-color: var(--border-color); background-color: initial;&quot;&gt;&lt;b&gt;&lt;br&gt;&lt;/b&gt;&lt;/span&gt;&lt;/div&gt;&lt;div style=&quot;border-color: var(--border-color); text-align: left;&quot;&gt;&lt;span style=&quot;border-color: var(--border-color); background-color: initial;&quot;&gt;{GVA.VPN[2],gPTE3.PPN} =&amp;gt; GPA1&lt;/span&gt;&lt;/div&gt;" style="rounded=0;whiteSpace=wrap;html=1;verticalAlign=top;fillColor=#fff2cc;strokeColor=#d6b656;" vertex="1" parent="1">
          <mxGeometry x="-4790" y="-280" width="200" height="70" as="geometry" />
        </mxCell>
        <mxCell id="Q2vNAMajYNCRpJ8Cx-mK-13" value="&lt;div style=&quot;border-color: var(--border-color); text-align: left;&quot;&gt;&lt;/div&gt;&lt;span style=&quot;border-color: var(--border-color); background-color: initial;&quot;&gt;&lt;/span&gt;&lt;div style=&quot;border-color: var(--border-color); text-align: left;&quot;&gt;&lt;span style=&quot;border-color: var(--border-color); background-color: initial;&quot;&gt;&lt;b&gt;GPA of entry in VS-stage&lt;/b&gt;&lt;/span&gt;&lt;/div&gt;&lt;div style=&quot;border-color: var(--border-color); text-align: left;&quot;&gt;&lt;span style=&quot;border-color: var(--border-color); background-color: initial;&quot;&gt;&lt;b&gt;next level page table&lt;/b&gt;&lt;/span&gt;&lt;/div&gt;&lt;div style=&quot;border-color: var(--border-color); text-align: left;&quot;&gt;&lt;span style=&quot;background-color: initial;&quot;&gt;&lt;br&gt;&lt;/span&gt;&lt;/div&gt;&lt;div style=&quot;border-color: var(--border-color); text-align: left;&quot;&gt;&lt;span style=&quot;background-color: initial;&quot;&gt;{GVA.VPN[1],gpte2.PPN}=&amp;gt; GPA2&lt;/span&gt;&lt;br&gt;&lt;/div&gt;" style="rounded=0;whiteSpace=wrap;html=1;verticalAlign=top;fillColor=#fff2cc;strokeColor=#d6b656;" vertex="1" parent="1">
          <mxGeometry x="-4370" y="-280" width="200" height="70" as="geometry" />
        </mxCell>
        <mxCell id="Q2vNAMajYNCRpJ8Cx-mK-14" value="GVA.VPN[2]" style="text;html=1;align=center;verticalAlign=middle;whiteSpace=wrap;rounded=0;" vertex="1" parent="1">
          <mxGeometry x="-4870" y="-240" width="60" height="20" as="geometry" />
        </mxCell>
        <mxCell id="Q2vNAMajYNCRpJ8Cx-mK-15" value="" style="endArrow=classic;html=1;rounded=0;fontSize=12;startSize=8;endSize=8;entryX=0;entryY=0.5;entryDx=0;entryDy=0;" edge="1" parent="1" target="Q2vNAMajYNCRpJ8Cx-mK-11">
          <mxGeometry width="50" height="50" relative="1" as="geometry">
            <mxPoint x="-4880" y="-340" as="sourcePoint" />
            <mxPoint x="-4580" y="-260" as="targetPoint" />
            <Array as="points">
              <mxPoint x="-4880" y="-245" />
            </Array>
          </mxGeometry>
        </mxCell>
        <mxCell id="Q2vNAMajYNCRpJ8Cx-mK-16" value="" style="endArrow=classic;html=1;rounded=0;fontSize=12;startSize=8;endSize=8;exitX=1;exitY=0.5;exitDx=0;exitDy=0;entryX=0.449;entryY=-0.037;entryDx=0;entryDy=0;entryPerimeter=0;" edge="1" parent="1" source="Q2vNAMajYNCRpJ8Cx-mK-2" target="Q2vNAMajYNCRpJ8Cx-mK-48">
          <mxGeometry width="50" height="50" relative="1" as="geometry">
            <mxPoint x="-4630" y="-240" as="sourcePoint" />
            <mxPoint x="-4580" y="-290" as="targetPoint" />
            <Array as="points">
              <mxPoint x="-5100" y="-380" />
            </Array>
          </mxGeometry>
        </mxCell>
        <mxCell id="Q2vNAMajYNCRpJ8Cx-mK-17" value="GVA.VPN[1]" style="text;html=1;align=center;verticalAlign=middle;whiteSpace=wrap;rounded=0;" vertex="1" parent="1">
          <mxGeometry x="-4440" y="-240" width="60" height="20" as="geometry" />
        </mxCell>
        <mxCell id="Q2vNAMajYNCRpJ8Cx-mK-18" value="" style="endArrow=classic;html=1;rounded=0;fontSize=12;startSize=8;endSize=8;entryX=0;entryY=0.5;entryDx=0;entryDy=0;" edge="1" parent="1" target="Q2vNAMajYNCRpJ8Cx-mK-13">
          <mxGeometry width="50" height="50" relative="1" as="geometry">
            <mxPoint x="-4440" y="-340" as="sourcePoint" />
            <mxPoint x="-4580" y="-290" as="targetPoint" />
            <Array as="points">
              <mxPoint x="-4440" y="-245" />
            </Array>
          </mxGeometry>
        </mxCell>
        <mxCell id="Q2vNAMajYNCRpJ8Cx-mK-20" value="" style="endArrow=classic;html=1;rounded=0;fontSize=12;startSize=8;endSize=8;entryX=0;entryY=0.5;entryDx=0;entryDy=0;" edge="1" parent="1">
          <mxGeometry width="50" height="50" relative="1" as="geometry">
            <mxPoint x="-4260" y="-120" as="sourcePoint" />
            <mxPoint x="-4120" y="-120" as="targetPoint" />
            <Array as="points" />
          </mxGeometry>
        </mxCell>
        <mxCell id="Q2vNAMajYNCRpJ8Cx-mK-23" value="&lt;div style=&quot;border-color: var(--border-color); text-align: left;&quot;&gt;&lt;/div&gt;&lt;span style=&quot;border-color: var(--border-color); background-color: initial;&quot;&gt;&lt;/span&gt;&lt;div style=&quot;border-color: var(--border-color); text-align: left;&quot;&gt;&lt;span style=&quot;border-color: var(--border-color); background-color: initial;&quot;&gt;&lt;b&gt;GPA of entry in VS-stage&lt;/b&gt;&lt;/span&gt;&lt;/div&gt;&lt;div style=&quot;border-color: var(--border-color); text-align: left;&quot;&gt;&lt;span style=&quot;border-color: var(--border-color); background-color: initial;&quot;&gt;&lt;b&gt;next level page table&lt;/b&gt;&lt;/span&gt;&lt;/div&gt;&lt;div style=&quot;border-color: var(--border-color); text-align: left;&quot;&gt;&lt;span style=&quot;border-color: var(--border-color); background-color: initial;&quot;&gt;&lt;b&gt;&lt;br&gt;&lt;/b&gt;&lt;/span&gt;&lt;/div&gt;&lt;div style=&quot;border-color: var(--border-color); text-align: left;&quot;&gt;&lt;span style=&quot;border-color: var(--border-color); background-color: initial;&quot;&gt;{GVA.VPN[0],gPTE1.PPN} =&amp;gt; GPA3&lt;/span&gt;&lt;/div&gt;" style="rounded=0;whiteSpace=wrap;html=1;verticalAlign=top;fillColor=#fff2cc;strokeColor=#d6b656;" vertex="1" parent="1">
          <mxGeometry x="-3960" y="-280" width="200" height="70" as="geometry" />
        </mxCell>
        <mxCell id="Q2vNAMajYNCRpJ8Cx-mK-24" value="GVA.VPN[0]" style="text;html=1;align=center;verticalAlign=middle;whiteSpace=wrap;rounded=0;" vertex="1" parent="1">
          <mxGeometry x="-4030" y="-240" width="60" height="20" as="geometry" />
        </mxCell>
        <mxCell id="Q2vNAMajYNCRpJ8Cx-mK-25" value="" style="endArrow=classic;html=1;rounded=0;fontSize=12;startSize=8;endSize=8;entryX=0;entryY=0.5;entryDx=0;entryDy=0;" edge="1" parent="1" target="Q2vNAMajYNCRpJ8Cx-mK-23">
          <mxGeometry width="50" height="50" relative="1" as="geometry">
            <mxPoint x="-4030" y="-340" as="sourcePoint" />
            <mxPoint x="-4170" y="-290" as="targetPoint" />
            <Array as="points">
              <mxPoint x="-4030" y="-245" />
            </Array>
          </mxGeometry>
        </mxCell>
        <mxCell id="Q2vNAMajYNCRpJ8Cx-mK-27" value="" style="endArrow=classic;html=1;rounded=0;fontSize=12;startSize=8;endSize=8;entryX=0;entryY=0.5;entryDx=0;entryDy=0;" edge="1" parent="1">
          <mxGeometry width="50" height="50" relative="1" as="geometry">
            <mxPoint x="-3850" y="-120" as="sourcePoint" />
            <mxPoint x="-3710" y="-120" as="targetPoint" />
            <Array as="points">
              <mxPoint x="-3850" y="-120" />
            </Array>
          </mxGeometry>
        </mxCell>
        <mxCell id="Q2vNAMajYNCRpJ8Cx-mK-30" value="" style="endArrow=classic;html=1;rounded=0;fontSize=12;startSize=8;endSize=8;entryX=0.5;entryY=0;entryDx=0;entryDy=0;" edge="1" parent="1">
          <mxGeometry width="50" height="50" relative="1" as="geometry">
            <mxPoint x="-4530" y="-420" as="sourcePoint" />
            <mxPoint x="-4080" y="-160" as="targetPoint" />
            <Array as="points">
              <mxPoint x="-4080" y="-420" />
            </Array>
          </mxGeometry>
        </mxCell>
        <mxCell id="Q2vNAMajYNCRpJ8Cx-mK-35" value="&lt;div style=&quot;border-color: var(--border-color); text-align: left;&quot;&gt;&lt;/div&gt;&lt;span style=&quot;border-color: var(--border-color); background-color: initial;&quot;&gt;&lt;/span&gt;&lt;div style=&quot;border-color: var(--border-color); text-align: left;&quot;&gt;&lt;span style=&quot;border-color: var(--border-color); background-color: initial;&quot;&gt;&lt;b&gt;GPA of entry in VS-stage&lt;/b&gt;&lt;/span&gt;&lt;/div&gt;&lt;div style=&quot;border-color: var(--border-color); text-align: left;&quot;&gt;&lt;span style=&quot;border-color: var(--border-color); background-color: initial;&quot;&gt;&lt;b&gt;next level page table&lt;/b&gt;&lt;/span&gt;&lt;/div&gt;&lt;div style=&quot;border-color: var(--border-color); text-align: left;&quot;&gt;&lt;span style=&quot;border-color: var(--border-color); background-color: initial;&quot;&gt;&lt;b&gt;&lt;br&gt;&lt;/b&gt;&lt;/span&gt;&lt;/div&gt;&lt;div style=&quot;border-color: var(--border-color); text-align: left;&quot;&gt;&lt;span style=&quot;border-color: var(--border-color); background-color: initial;&quot;&gt;{GVA.offset,gPTE0.PPN} =&amp;gt; GPA4&lt;/span&gt;&lt;/div&gt;" style="rounded=0;whiteSpace=wrap;html=1;verticalAlign=top;fillColor=#fff2cc;strokeColor=#d6b656;" vertex="1" parent="1">
          <mxGeometry x="-3550" y="-280" width="190" height="70" as="geometry" />
        </mxCell>
        <mxCell id="Q2vNAMajYNCRpJ8Cx-mK-36" value="GVA.offset" style="text;html=1;align=center;verticalAlign=middle;whiteSpace=wrap;rounded=0;" vertex="1" parent="1">
          <mxGeometry x="-3620" y="-240" width="60" height="20" as="geometry" />
        </mxCell>
        <mxCell id="Q2vNAMajYNCRpJ8Cx-mK-38" value="" style="endArrow=classic;html=1;rounded=0;fontSize=12;startSize=8;endSize=8;entryX=0;entryY=0.5;entryDx=0;entryDy=0;exitX=0.576;exitY=1.009;exitDx=0;exitDy=0;exitPerimeter=0;" edge="1" parent="1" source="Q2vNAMajYNCRpJ8Cx-mK-35">
          <mxGeometry width="50" height="50" relative="1" as="geometry">
            <mxPoint x="-3451" y="-203.5" as="sourcePoint" />
            <mxPoint x="-3300" y="-120" as="targetPoint" />
            <Array as="points">
              <mxPoint x="-3440" y="-120" />
            </Array>
          </mxGeometry>
        </mxCell>
        <mxCell id="Q2vNAMajYNCRpJ8Cx-mK-43" value="" style="endArrow=classic;html=1;rounded=0;fontSize=12;startSize=8;endSize=8;entryX=0.5;entryY=0;entryDx=0;entryDy=0;" edge="1" parent="1">
          <mxGeometry width="50" height="50" relative="1" as="geometry">
            <mxPoint x="-4080" y="-420" as="sourcePoint" />
            <mxPoint x="-3670" y="-160" as="targetPoint" />
            <Array as="points">
              <mxPoint x="-3670" y="-420" />
            </Array>
          </mxGeometry>
        </mxCell>
        <mxCell id="Q2vNAMajYNCRpJ8Cx-mK-44" value="" style="endArrow=classic;html=1;rounded=0;fontSize=12;startSize=8;endSize=8;entryX=0.5;entryY=0;entryDx=0;entryDy=0;" edge="1" parent="1">
          <mxGeometry width="50" height="50" relative="1" as="geometry">
            <mxPoint x="-3670" y="-420" as="sourcePoint" />
            <mxPoint x="-3260" y="-160" as="targetPoint" />
            <Array as="points">
              <mxPoint x="-3260" y="-420" />
            </Array>
          </mxGeometry>
        </mxCell>
        <mxCell id="Q2vNAMajYNCRpJ8Cx-mK-46" value="" style="endArrow=classic;html=1;rounded=0;fontSize=12;startSize=8;endSize=8;entryX=0;entryY=0.5;entryDx=0;entryDy=0;exitX=0.392;exitY=0.997;exitDx=0;exitDy=0;exitPerimeter=0;" edge="1" parent="1" source="Q2vNAMajYNCRpJ8Cx-mK-48">
          <mxGeometry width="50" height="50" relative="1" as="geometry">
            <mxPoint x="-5120" y="-200" as="sourcePoint" />
            <mxPoint x="-4970" y="-120" as="targetPoint" />
            <Array as="points">
              <mxPoint x="-5110" y="-120" />
            </Array>
          </mxGeometry>
        </mxCell>
        <mxCell id="Q2vNAMajYNCRpJ8Cx-mK-48" value="&lt;div style=&quot;border-color: var(--border-color); text-align: left;&quot;&gt;&lt;/div&gt;&lt;span style=&quot;border-color: var(--border-color); background-color: initial;&quot;&gt;&lt;/span&gt;&lt;div style=&quot;border-color: var(--border-color); text-align: left;&quot;&gt;&lt;span style=&quot;border-color: var(--border-color); background-color: initial;&quot;&gt;&lt;b&gt;GPA of entry in VS-stage&lt;/b&gt;&lt;/span&gt;&lt;/div&gt;&lt;div style=&quot;border-color: var(--border-color); text-align: left;&quot;&gt;&lt;span style=&quot;border-color: var(--border-color); background-color: initial;&quot;&gt;&lt;b&gt;root page table&lt;/b&gt;&lt;/span&gt;&lt;/div&gt;&lt;div style=&quot;border-color: var(--border-color); text-align: left;&quot;&gt;&lt;span style=&quot;border-color: var(--border-color); background-color: initial;&quot;&gt;&lt;b&gt;&lt;br&gt;&lt;/b&gt;&lt;/span&gt;&lt;/div&gt;&lt;div style=&quot;border-color: var(--border-color); text-align: left;&quot;&gt;&lt;span style=&quot;border-color: var(--border-color); background-color: initial;&quot;&gt;{GVA.VPN[3],VSATP.PPN} =&amp;gt; GPA0&lt;/span&gt;&lt;/div&gt;" style="rounded=0;whiteSpace=wrap;html=1;verticalAlign=top;fillColor=#fff2cc;strokeColor=#d6b656;" vertex="1" parent="1">
          <mxGeometry x="-5190" y="-280" width="200" height="70" as="geometry" />
        </mxCell>
        <mxCell id="Q2vNAMajYNCRpJ8Cx-mK-50" value="GVA.VPN[3]" style="text;html=1;align=center;verticalAlign=middle;whiteSpace=wrap;rounded=0;" vertex="1" parent="1">
          <mxGeometry x="-5270" y="-240" width="60" height="20" as="geometry" />
        </mxCell>
        <mxCell id="Q2vNAMajYNCRpJ8Cx-mK-51" value="" style="endArrow=classic;html=1;rounded=0;fontSize=12;startSize=8;endSize=8;entryX=0;entryY=0.5;entryDx=0;entryDy=0;" edge="1" parent="1" target="Q2vNAMajYNCRpJ8Cx-mK-48">
          <mxGeometry width="50" height="50" relative="1" as="geometry">
            <mxPoint x="-5280" y="-340" as="sourcePoint" />
            <mxPoint x="-4980" y="-260" as="targetPoint" />
            <Array as="points">
              <mxPoint x="-5280" y="-245" />
            </Array>
          </mxGeometry>
        </mxCell>
        <mxCell id="Q2vNAMajYNCRpJ8Cx-mK-52" value="" style="endArrow=classic;html=1;rounded=0;fontSize=12;startSize=8;endSize=8;exitX=1;exitY=0.5;exitDx=0;exitDy=0;entryX=0.066;entryY=1.014;entryDx=0;entryDy=0;entryPerimeter=0;" edge="1" parent="1" source="Q2vNAMajYNCRpJ8Cx-mK-72" target="Q2vNAMajYNCRpJ8Cx-mK-11">
          <mxGeometry width="50" height="50" relative="1" as="geometry">
            <mxPoint x="-4890" y="-112.5" as="sourcePoint" />
            <mxPoint x="-4759" y="-211.5" as="targetPoint" />
            <Array as="points">
              <mxPoint x="-4780" y="525" />
              <mxPoint x="-4780" y="370" />
            </Array>
          </mxGeometry>
        </mxCell>
        <mxCell id="Q2vNAMajYNCRpJ8Cx-mK-53" value="gPTE3" style="text;html=1;align=center;verticalAlign=middle;whiteSpace=wrap;rounded=0;" vertex="1" parent="1">
          <mxGeometry x="-4870" y="500" width="60" height="20" as="geometry" />
        </mxCell>
        <mxCell id="Q2vNAMajYNCRpJ8Cx-mK-54" value="" style="endArrow=classic;html=1;rounded=0;fontSize=12;startSize=8;endSize=8;entryX=0.5;entryY=0;entryDx=0;entryDy=0;" edge="1" parent="1">
          <mxGeometry width="50" height="50" relative="1" as="geometry">
            <mxPoint x="-4930" y="-420" as="sourcePoint" />
            <mxPoint x="-4930" y="-160" as="targetPoint" />
          </mxGeometry>
        </mxCell>
        <mxCell id="Q2vNAMajYNCRpJ8Cx-mK-55" value="" style="whiteSpace=wrap;html=1;aspect=fixed;fillColor=#dae8fc;strokeColor=#6c8ebf;" vertex="1" parent="1">
          <mxGeometry x="-4970" width="80" height="80" as="geometry" />
        </mxCell>
        <mxCell id="Q2vNAMajYNCRpJ8Cx-mK-56" value="" style="whiteSpace=wrap;html=1;aspect=fixed;fillColor=#dae8fc;strokeColor=#6c8ebf;" vertex="1" parent="1">
          <mxGeometry x="-4970" y="160" width="80" height="80" as="geometry" />
        </mxCell>
        <mxCell id="Q2vNAMajYNCRpJ8Cx-mK-57" value="" style="whiteSpace=wrap;html=1;aspect=fixed;fillColor=#dae8fc;strokeColor=#6c8ebf;" vertex="1" parent="1">
          <mxGeometry x="-4970" y="320" width="80" height="80" as="geometry" />
        </mxCell>
        <mxCell id="Q2vNAMajYNCRpJ8Cx-mK-58" value="GPA0[2]" style="text;html=1;align=center;verticalAlign=middle;whiteSpace=wrap;rounded=0;" vertex="1" parent="1">
          <mxGeometry x="-5100" y="20" width="60" height="20" as="geometry" />
        </mxCell>
        <mxCell id="Q2vNAMajYNCRpJ8Cx-mK-59" value="" style="endArrow=classic;html=1;rounded=0;fontSize=12;startSize=8;endSize=8;entryX=-0.044;entryY=0.495;entryDx=0;entryDy=0;entryPerimeter=0;" edge="1" parent="1" target="Q2vNAMajYNCRpJ8Cx-mK-56">
          <mxGeometry width="50" height="50" relative="1" as="geometry">
            <mxPoint x="-5110" y="40" as="sourcePoint" />
            <mxPoint x="-5080" y="20" as="targetPoint" />
            <Array as="points">
              <mxPoint x="-5110" y="110" />
              <mxPoint x="-5110" y="200" />
            </Array>
          </mxGeometry>
        </mxCell>
        <mxCell id="Q2vNAMajYNCRpJ8Cx-mK-60" value="GPA0[1]" style="text;html=1;align=center;verticalAlign=middle;whiteSpace=wrap;rounded=0;" vertex="1" parent="1">
          <mxGeometry x="-5100" y="180" width="60" height="20" as="geometry" />
        </mxCell>
        <mxCell id="Q2vNAMajYNCRpJ8Cx-mK-61" value="" style="endArrow=classic;html=1;rounded=0;fontSize=12;startSize=8;endSize=8;entryX=0;entryY=0.5;entryDx=0;entryDy=0;" edge="1" parent="1" target="Q2vNAMajYNCRpJ8Cx-mK-57">
          <mxGeometry width="50" height="50" relative="1" as="geometry">
            <mxPoint x="-5110" y="200" as="sourcePoint" />
            <mxPoint x="-4960" y="300" as="targetPoint" />
            <Array as="points">
              <mxPoint x="-5110" y="360" />
            </Array>
          </mxGeometry>
        </mxCell>
        <mxCell id="Q2vNAMajYNCRpJ8Cx-mK-62" value="GPA0[0]" style="text;html=1;align=center;verticalAlign=middle;whiteSpace=wrap;rounded=0;" vertex="1" parent="1">
          <mxGeometry x="-5100" y="340" width="60" height="20" as="geometry" />
        </mxCell>
        <mxCell id="Q2vNAMajYNCRpJ8Cx-mK-63" value="" style="endArrow=classic;html=1;rounded=0;fontSize=12;startSize=8;endSize=8;exitX=0.5;exitY=1;exitDx=0;exitDy=0;entryX=0.5;entryY=0;entryDx=0;entryDy=0;" edge="1" parent="1" source="Q2vNAMajYNCRpJ8Cx-mK-55" target="Q2vNAMajYNCRpJ8Cx-mK-56">
          <mxGeometry width="50" height="50" relative="1" as="geometry">
            <mxPoint x="-5250" y="230" as="sourcePoint" />
            <mxPoint x="-5200" y="180" as="targetPoint" />
          </mxGeometry>
        </mxCell>
        <mxCell id="Q2vNAMajYNCRpJ8Cx-mK-64" value="" style="endArrow=classic;html=1;rounded=0;fontSize=12;startSize=8;endSize=8;exitX=0.5;exitY=1;exitDx=0;exitDy=0;entryX=0.5;entryY=0;entryDx=0;entryDy=0;" edge="1" parent="1">
          <mxGeometry width="50" height="50" relative="1" as="geometry">
            <mxPoint x="-4930.71" y="240" as="sourcePoint" />
            <mxPoint x="-4930.71" y="320" as="targetPoint" />
          </mxGeometry>
        </mxCell>
        <mxCell id="Q2vNAMajYNCRpJ8Cx-mK-65" value="PTE2.PPN" style="text;html=1;align=center;verticalAlign=middle;whiteSpace=wrap;rounded=0;" vertex="1" parent="1">
          <mxGeometry x="-4920" y="120" width="60" height="30" as="geometry" />
        </mxCell>
        <mxCell id="Q2vNAMajYNCRpJ8Cx-mK-66" value="PTE1.PPN" style="text;html=1;align=center;verticalAlign=middle;whiteSpace=wrap;rounded=0;" vertex="1" parent="1">
          <mxGeometry x="-4920" y="280" width="60" height="30" as="geometry" />
        </mxCell>
        <mxCell id="Q2vNAMajYNCRpJ8Cx-mK-67" value="" style="whiteSpace=wrap;html=1;aspect=fixed;fillColor=#dae8fc;strokeColor=#6c8ebf;" vertex="1" parent="1">
          <mxGeometry x="-4970" y="480" width="80" height="80" as="geometry" />
        </mxCell>
        <mxCell id="Q2vNAMajYNCRpJ8Cx-mK-68" value="" style="endArrow=classic;html=1;rounded=0;fontSize=12;startSize=8;endSize=8;exitX=0.5;exitY=1;exitDx=0;exitDy=0;entryX=0.5;entryY=0;entryDx=0;entryDy=0;" edge="1" parent="1">
          <mxGeometry width="50" height="50" relative="1" as="geometry">
            <mxPoint x="-4930.71" y="400" as="sourcePoint" />
            <mxPoint x="-4930.71" y="480" as="targetPoint" />
          </mxGeometry>
        </mxCell>
        <mxCell id="Q2vNAMajYNCRpJ8Cx-mK-69" value="PTE0.PPN" style="text;html=1;align=center;verticalAlign=middle;whiteSpace=wrap;rounded=0;" vertex="1" parent="1">
          <mxGeometry x="-4920" y="430" width="60" height="30" as="geometry" />
        </mxCell>
        <mxCell id="Q2vNAMajYNCRpJ8Cx-mK-70" value="" style="endArrow=classic;html=1;rounded=0;fontSize=12;startSize=8;endSize=8;" edge="1" parent="1">
          <mxGeometry width="50" height="50" relative="1" as="geometry">
            <mxPoint x="-5110" y="360" as="sourcePoint" />
            <mxPoint x="-4970" y="520" as="targetPoint" />
            <Array as="points">
              <mxPoint x="-5110" y="520" />
            </Array>
          </mxGeometry>
        </mxCell>
        <mxCell id="Q2vNAMajYNCRpJ8Cx-mK-71" value="GPA0.offset" style="text;html=1;align=center;verticalAlign=middle;whiteSpace=wrap;rounded=0;" vertex="1" parent="1">
          <mxGeometry x="-5100" y="500" width="60" height="20" as="geometry" />
        </mxCell>
        <mxCell id="Q2vNAMajYNCRpJ8Cx-mK-72" value="HPA3" style="rounded=0;whiteSpace=wrap;html=1;fillColor=#647687;fontColor=#ffffff;strokeColor=#314354;" vertex="1" parent="1">
          <mxGeometry x="-4970" y="510" width="80" height="30" as="geometry" />
        </mxCell>
        <mxCell id="Q2vNAMajYNCRpJ8Cx-mK-73" value="" style="whiteSpace=wrap;html=1;aspect=fixed;fillColor=#dae8fc;strokeColor=#6c8ebf;" vertex="1" parent="1">
          <mxGeometry x="-4970" y="-160" width="80" height="80" as="geometry" />
        </mxCell>
        <mxCell id="Q2vNAMajYNCRpJ8Cx-mK-74" value="GPA0[3]" style="text;html=1;align=center;verticalAlign=middle;whiteSpace=wrap;rounded=0;" vertex="1" parent="1">
          <mxGeometry x="-5100" y="-146.5" width="60" height="20" as="geometry" />
        </mxCell>
        <mxCell id="Q2vNAMajYNCRpJ8Cx-mK-75" value="" style="endArrow=classic;html=1;rounded=0;fontSize=12;startSize=8;endSize=8;exitX=0.5;exitY=1;exitDx=0;exitDy=0;entryX=0.5;entryY=0;entryDx=0;entryDy=0;" edge="1" parent="1" source="Q2vNAMajYNCRpJ8Cx-mK-73">
          <mxGeometry width="50" height="50" relative="1" as="geometry">
            <mxPoint x="-5250" y="70" as="sourcePoint" />
            <mxPoint x="-4930" as="targetPoint" />
          </mxGeometry>
        </mxCell>
        <mxCell id="Q2vNAMajYNCRpJ8Cx-mK-76" value="PTE3.PPN" style="text;html=1;align=center;verticalAlign=middle;whiteSpace=wrap;rounded=0;" vertex="1" parent="1">
          <mxGeometry x="-4920" y="-40" width="60" height="30" as="geometry" />
        </mxCell>
        <mxCell id="Q2vNAMajYNCRpJ8Cx-mK-77" value="" style="endArrow=classic;html=1;rounded=0;fontSize=12;startSize=8;endSize=8;entryX=0;entryY=0.5;entryDx=0;entryDy=0;" edge="1" parent="1" target="Q2vNAMajYNCRpJ8Cx-mK-55">
          <mxGeometry width="50" height="50" relative="1" as="geometry">
            <mxPoint x="-5110" y="-120" as="sourcePoint" />
            <mxPoint x="-4750" y="30" as="targetPoint" />
            <Array as="points">
              <mxPoint x="-5110" y="40" />
            </Array>
          </mxGeometry>
        </mxCell>
        <mxCell id="Q2vNAMajYNCRpJ8Cx-mK-111" value="" style="endArrow=classic;html=1;rounded=0;fontSize=12;startSize=8;endSize=8;exitX=1;exitY=0.5;exitDx=0;exitDy=0;" edge="1" parent="1" source="Q2vNAMajYNCRpJ8Cx-mK-130">
          <mxGeometry width="50" height="50" relative="1" as="geometry">
            <mxPoint x="-4490" y="-112.5" as="sourcePoint" />
            <mxPoint x="-4359" y="-211.5" as="targetPoint" />
            <Array as="points">
              <mxPoint x="-4359" y="525" />
              <mxPoint x="-4359" y="-112" />
            </Array>
          </mxGeometry>
        </mxCell>
        <mxCell id="Q2vNAMajYNCRpJ8Cx-mK-112" value="gPTE2" style="text;html=1;align=center;verticalAlign=middle;whiteSpace=wrap;rounded=0;" vertex="1" parent="1">
          <mxGeometry x="-4460" y="500" width="60" height="20" as="geometry" />
        </mxCell>
        <mxCell id="Q2vNAMajYNCRpJ8Cx-mK-113" value="" style="whiteSpace=wrap;html=1;aspect=fixed;fillColor=#dae8fc;strokeColor=#6c8ebf;" vertex="1" parent="1">
          <mxGeometry x="-4570" width="80" height="80" as="geometry" />
        </mxCell>
        <mxCell id="Q2vNAMajYNCRpJ8Cx-mK-114" value="" style="whiteSpace=wrap;html=1;aspect=fixed;fillColor=#dae8fc;strokeColor=#6c8ebf;" vertex="1" parent="1">
          <mxGeometry x="-4570" y="160" width="80" height="80" as="geometry" />
        </mxCell>
        <mxCell id="Q2vNAMajYNCRpJ8Cx-mK-115" value="" style="whiteSpace=wrap;html=1;aspect=fixed;fillColor=#dae8fc;strokeColor=#6c8ebf;" vertex="1" parent="1">
          <mxGeometry x="-4570" y="320" width="80" height="80" as="geometry" />
        </mxCell>
        <mxCell id="Q2vNAMajYNCRpJ8Cx-mK-116" value="GPA1[2]" style="text;html=1;align=center;verticalAlign=middle;whiteSpace=wrap;rounded=0;" vertex="1" parent="1">
          <mxGeometry x="-4700" y="20" width="60" height="20" as="geometry" />
        </mxCell>
        <mxCell id="Q2vNAMajYNCRpJ8Cx-mK-117" value="" style="endArrow=classic;html=1;rounded=0;fontSize=12;startSize=8;endSize=8;entryX=-0.044;entryY=0.495;entryDx=0;entryDy=0;entryPerimeter=0;" edge="1" parent="1" target="Q2vNAMajYNCRpJ8Cx-mK-114">
          <mxGeometry width="50" height="50" relative="1" as="geometry">
            <mxPoint x="-4710" y="40" as="sourcePoint" />
            <mxPoint x="-4680" y="20" as="targetPoint" />
            <Array as="points">
              <mxPoint x="-4710" y="110" />
              <mxPoint x="-4710" y="200" />
            </Array>
          </mxGeometry>
        </mxCell>
        <mxCell id="Q2vNAMajYNCRpJ8Cx-mK-118" value="GPA1[1]" style="text;html=1;align=center;verticalAlign=middle;whiteSpace=wrap;rounded=0;" vertex="1" parent="1">
          <mxGeometry x="-4700" y="180" width="60" height="20" as="geometry" />
        </mxCell>
        <mxCell id="Q2vNAMajYNCRpJ8Cx-mK-119" value="" style="endArrow=classic;html=1;rounded=0;fontSize=12;startSize=8;endSize=8;entryX=0;entryY=0.5;entryDx=0;entryDy=0;" edge="1" parent="1" target="Q2vNAMajYNCRpJ8Cx-mK-115">
          <mxGeometry width="50" height="50" relative="1" as="geometry">
            <mxPoint x="-4710" y="200" as="sourcePoint" />
            <mxPoint x="-4560" y="300" as="targetPoint" />
            <Array as="points">
              <mxPoint x="-4710" y="360" />
            </Array>
          </mxGeometry>
        </mxCell>
        <mxCell id="Q2vNAMajYNCRpJ8Cx-mK-120" value="GPA1[0]" style="text;html=1;align=center;verticalAlign=middle;whiteSpace=wrap;rounded=0;" vertex="1" parent="1">
          <mxGeometry x="-4700" y="340" width="60" height="20" as="geometry" />
        </mxCell>
        <mxCell id="Q2vNAMajYNCRpJ8Cx-mK-121" value="" style="endArrow=classic;html=1;rounded=0;fontSize=12;startSize=8;endSize=8;exitX=0.5;exitY=1;exitDx=0;exitDy=0;entryX=0.5;entryY=0;entryDx=0;entryDy=0;" edge="1" parent="1" source="Q2vNAMajYNCRpJ8Cx-mK-113" target="Q2vNAMajYNCRpJ8Cx-mK-114">
          <mxGeometry width="50" height="50" relative="1" as="geometry">
            <mxPoint x="-4850" y="230" as="sourcePoint" />
            <mxPoint x="-4800" y="180" as="targetPoint" />
          </mxGeometry>
        </mxCell>
        <mxCell id="Q2vNAMajYNCRpJ8Cx-mK-122" value="" style="endArrow=classic;html=1;rounded=0;fontSize=12;startSize=8;endSize=8;exitX=0.5;exitY=1;exitDx=0;exitDy=0;entryX=0.5;entryY=0;entryDx=0;entryDy=0;" edge="1" parent="1">
          <mxGeometry width="50" height="50" relative="1" as="geometry">
            <mxPoint x="-4530.71" y="240" as="sourcePoint" />
            <mxPoint x="-4530.71" y="320" as="targetPoint" />
          </mxGeometry>
        </mxCell>
        <mxCell id="Q2vNAMajYNCRpJ8Cx-mK-123" value="PTE2.PPN" style="text;html=1;align=center;verticalAlign=middle;whiteSpace=wrap;rounded=0;" vertex="1" parent="1">
          <mxGeometry x="-4520" y="120" width="60" height="30" as="geometry" />
        </mxCell>
        <mxCell id="Q2vNAMajYNCRpJ8Cx-mK-124" value="PTE1.PPN" style="text;html=1;align=center;verticalAlign=middle;whiteSpace=wrap;rounded=0;" vertex="1" parent="1">
          <mxGeometry x="-4520" y="280" width="60" height="30" as="geometry" />
        </mxCell>
        <mxCell id="Q2vNAMajYNCRpJ8Cx-mK-125" value="" style="whiteSpace=wrap;html=1;aspect=fixed;fillColor=#dae8fc;strokeColor=#6c8ebf;" vertex="1" parent="1">
          <mxGeometry x="-4570" y="480" width="80" height="80" as="geometry" />
        </mxCell>
        <mxCell id="Q2vNAMajYNCRpJ8Cx-mK-126" value="" style="endArrow=classic;html=1;rounded=0;fontSize=12;startSize=8;endSize=8;exitX=0.5;exitY=1;exitDx=0;exitDy=0;entryX=0.5;entryY=0;entryDx=0;entryDy=0;" edge="1" parent="1">
          <mxGeometry width="50" height="50" relative="1" as="geometry">
            <mxPoint x="-4530.71" y="400" as="sourcePoint" />
            <mxPoint x="-4530.71" y="480" as="targetPoint" />
          </mxGeometry>
        </mxCell>
        <mxCell id="Q2vNAMajYNCRpJ8Cx-mK-127" value="PTE0.PPN" style="text;html=1;align=center;verticalAlign=middle;whiteSpace=wrap;rounded=0;" vertex="1" parent="1">
          <mxGeometry x="-4520" y="430" width="60" height="30" as="geometry" />
        </mxCell>
        <mxCell id="Q2vNAMajYNCRpJ8Cx-mK-128" value="" style="endArrow=classic;html=1;rounded=0;fontSize=12;startSize=8;endSize=8;" edge="1" parent="1">
          <mxGeometry width="50" height="50" relative="1" as="geometry">
            <mxPoint x="-4710" y="360" as="sourcePoint" />
            <mxPoint x="-4570" y="520" as="targetPoint" />
            <Array as="points">
              <mxPoint x="-4710" y="520" />
            </Array>
          </mxGeometry>
        </mxCell>
        <mxCell id="Q2vNAMajYNCRpJ8Cx-mK-129" value="GPA1.offset" style="text;html=1;align=center;verticalAlign=middle;whiteSpace=wrap;rounded=0;" vertex="1" parent="1">
          <mxGeometry x="-4700" y="500" width="60" height="20" as="geometry" />
        </mxCell>
        <mxCell id="Q2vNAMajYNCRpJ8Cx-mK-130" value="HPA2" style="rounded=0;whiteSpace=wrap;html=1;fillColor=#647687;fontColor=#ffffff;strokeColor=#314354;" vertex="1" parent="1">
          <mxGeometry x="-4570" y="510" width="80" height="30" as="geometry" />
        </mxCell>
        <mxCell id="Q2vNAMajYNCRpJ8Cx-mK-131" value="" style="whiteSpace=wrap;html=1;aspect=fixed;fillColor=#dae8fc;strokeColor=#6c8ebf;" vertex="1" parent="1">
          <mxGeometry x="-4570" y="-160" width="80" height="80" as="geometry" />
        </mxCell>
        <mxCell id="Q2vNAMajYNCRpJ8Cx-mK-132" value="GPA1[3]" style="text;html=1;align=center;verticalAlign=middle;whiteSpace=wrap;rounded=0;" vertex="1" parent="1">
          <mxGeometry x="-4700" y="-140" width="60" height="20" as="geometry" />
        </mxCell>
        <mxCell id="Q2vNAMajYNCRpJ8Cx-mK-133" value="" style="endArrow=classic;html=1;rounded=0;fontSize=12;startSize=8;endSize=8;exitX=0.5;exitY=1;exitDx=0;exitDy=0;entryX=0.5;entryY=0;entryDx=0;entryDy=0;" edge="1" parent="1" source="Q2vNAMajYNCRpJ8Cx-mK-131">
          <mxGeometry width="50" height="50" relative="1" as="geometry">
            <mxPoint x="-4850" y="70" as="sourcePoint" />
            <mxPoint x="-4530" as="targetPoint" />
          </mxGeometry>
        </mxCell>
        <mxCell id="Q2vNAMajYNCRpJ8Cx-mK-134" value="PTE3.PPN" style="text;html=1;align=center;verticalAlign=middle;whiteSpace=wrap;rounded=0;" vertex="1" parent="1">
          <mxGeometry x="-4520" y="-40" width="60" height="30" as="geometry" />
        </mxCell>
        <mxCell id="Q2vNAMajYNCRpJ8Cx-mK-135" value="" style="endArrow=classic;html=1;rounded=0;fontSize=12;startSize=8;endSize=8;entryX=0;entryY=0.5;entryDx=0;entryDy=0;" edge="1" parent="1" target="Q2vNAMajYNCRpJ8Cx-mK-113">
          <mxGeometry width="50" height="50" relative="1" as="geometry">
            <mxPoint x="-4710" y="-120" as="sourcePoint" />
            <mxPoint x="-4350" y="30" as="targetPoint" />
            <Array as="points">
              <mxPoint x="-4710" y="40" />
            </Array>
          </mxGeometry>
        </mxCell>
        <mxCell id="Q2vNAMajYNCRpJ8Cx-mK-140" value="" style="endArrow=classic;html=1;rounded=0;fontSize=12;startSize=8;endSize=8;exitX=1;exitY=0.5;exitDx=0;exitDy=0;entryX=0.097;entryY=1.038;entryDx=0;entryDy=0;entryPerimeter=0;" edge="1" parent="1" source="Q2vNAMajYNCRpJ8Cx-mK-159" target="Q2vNAMajYNCRpJ8Cx-mK-23">
          <mxGeometry width="50" height="50" relative="1" as="geometry">
            <mxPoint x="-4041" y="-112.5" as="sourcePoint" />
            <mxPoint x="-3940" y="-200" as="targetPoint" />
            <Array as="points">
              <mxPoint x="-3940" y="525" />
            </Array>
          </mxGeometry>
        </mxCell>
        <mxCell id="Q2vNAMajYNCRpJ8Cx-mK-141" value="gPTE3" style="text;html=1;align=center;verticalAlign=middle;whiteSpace=wrap;rounded=0;" vertex="1" parent="1">
          <mxGeometry x="-4011" y="500" width="60" height="20" as="geometry" />
        </mxCell>
        <mxCell id="Q2vNAMajYNCRpJ8Cx-mK-142" value="" style="whiteSpace=wrap;html=1;aspect=fixed;fillColor=#dae8fc;strokeColor=#6c8ebf;" vertex="1" parent="1">
          <mxGeometry x="-4121" width="80" height="80" as="geometry" />
        </mxCell>
        <mxCell id="Q2vNAMajYNCRpJ8Cx-mK-143" value="" style="whiteSpace=wrap;html=1;aspect=fixed;fillColor=#dae8fc;strokeColor=#6c8ebf;" vertex="1" parent="1">
          <mxGeometry x="-4121" y="160" width="80" height="80" as="geometry" />
        </mxCell>
        <mxCell id="Q2vNAMajYNCRpJ8Cx-mK-144" value="" style="whiteSpace=wrap;html=1;aspect=fixed;fillColor=#dae8fc;strokeColor=#6c8ebf;" vertex="1" parent="1">
          <mxGeometry x="-4121" y="320" width="80" height="80" as="geometry" />
        </mxCell>
        <mxCell id="Q2vNAMajYNCRpJ8Cx-mK-145" value="GPA2[2]" style="text;html=1;align=center;verticalAlign=middle;whiteSpace=wrap;rounded=0;" vertex="1" parent="1">
          <mxGeometry x="-4251" y="20" width="60" height="20" as="geometry" />
        </mxCell>
        <mxCell id="Q2vNAMajYNCRpJ8Cx-mK-146" value="" style="endArrow=classic;html=1;rounded=0;fontSize=12;startSize=8;endSize=8;entryX=-0.044;entryY=0.495;entryDx=0;entryDy=0;entryPerimeter=0;" edge="1" parent="1" target="Q2vNAMajYNCRpJ8Cx-mK-143">
          <mxGeometry width="50" height="50" relative="1" as="geometry">
            <mxPoint x="-4261" y="40" as="sourcePoint" />
            <mxPoint x="-4231" y="20" as="targetPoint" />
            <Array as="points">
              <mxPoint x="-4261" y="110" />
              <mxPoint x="-4261" y="200" />
            </Array>
          </mxGeometry>
        </mxCell>
        <mxCell id="Q2vNAMajYNCRpJ8Cx-mK-147" value="GPA2[1]" style="text;html=1;align=center;verticalAlign=middle;whiteSpace=wrap;rounded=0;" vertex="1" parent="1">
          <mxGeometry x="-4251" y="180" width="60" height="20" as="geometry" />
        </mxCell>
        <mxCell id="Q2vNAMajYNCRpJ8Cx-mK-148" value="" style="endArrow=classic;html=1;rounded=0;fontSize=12;startSize=8;endSize=8;entryX=0;entryY=0.5;entryDx=0;entryDy=0;" edge="1" parent="1" target="Q2vNAMajYNCRpJ8Cx-mK-144">
          <mxGeometry width="50" height="50" relative="1" as="geometry">
            <mxPoint x="-4261" y="200" as="sourcePoint" />
            <mxPoint x="-4111" y="300" as="targetPoint" />
            <Array as="points">
              <mxPoint x="-4261" y="360" />
            </Array>
          </mxGeometry>
        </mxCell>
        <mxCell id="Q2vNAMajYNCRpJ8Cx-mK-149" value="GPA2[0]" style="text;html=1;align=center;verticalAlign=middle;whiteSpace=wrap;rounded=0;" vertex="1" parent="1">
          <mxGeometry x="-4251" y="340" width="60" height="20" as="geometry" />
        </mxCell>
        <mxCell id="Q2vNAMajYNCRpJ8Cx-mK-150" value="" style="endArrow=classic;html=1;rounded=0;fontSize=12;startSize=8;endSize=8;exitX=0.5;exitY=1;exitDx=0;exitDy=0;entryX=0.5;entryY=0;entryDx=0;entryDy=0;" edge="1" parent="1" source="Q2vNAMajYNCRpJ8Cx-mK-142" target="Q2vNAMajYNCRpJ8Cx-mK-143">
          <mxGeometry width="50" height="50" relative="1" as="geometry">
            <mxPoint x="-4401" y="230" as="sourcePoint" />
            <mxPoint x="-4351" y="180" as="targetPoint" />
          </mxGeometry>
        </mxCell>
        <mxCell id="Q2vNAMajYNCRpJ8Cx-mK-151" value="" style="endArrow=classic;html=1;rounded=0;fontSize=12;startSize=8;endSize=8;exitX=0.5;exitY=1;exitDx=0;exitDy=0;entryX=0.5;entryY=0;entryDx=0;entryDy=0;" edge="1" parent="1">
          <mxGeometry width="50" height="50" relative="1" as="geometry">
            <mxPoint x="-4081.71" y="240" as="sourcePoint" />
            <mxPoint x="-4081.71" y="320" as="targetPoint" />
          </mxGeometry>
        </mxCell>
        <mxCell id="Q2vNAMajYNCRpJ8Cx-mK-152" value="PTE2.PPN" style="text;html=1;align=center;verticalAlign=middle;whiteSpace=wrap;rounded=0;" vertex="1" parent="1">
          <mxGeometry x="-4071" y="120" width="60" height="30" as="geometry" />
        </mxCell>
        <mxCell id="Q2vNAMajYNCRpJ8Cx-mK-153" value="PTE1.PPN" style="text;html=1;align=center;verticalAlign=middle;whiteSpace=wrap;rounded=0;" vertex="1" parent="1">
          <mxGeometry x="-4071" y="280" width="60" height="30" as="geometry" />
        </mxCell>
        <mxCell id="Q2vNAMajYNCRpJ8Cx-mK-154" value="" style="whiteSpace=wrap;html=1;aspect=fixed;fillColor=#dae8fc;strokeColor=#6c8ebf;" vertex="1" parent="1">
          <mxGeometry x="-4121" y="480" width="80" height="80" as="geometry" />
        </mxCell>
        <mxCell id="Q2vNAMajYNCRpJ8Cx-mK-155" value="" style="endArrow=classic;html=1;rounded=0;fontSize=12;startSize=8;endSize=8;exitX=0.5;exitY=1;exitDx=0;exitDy=0;entryX=0.5;entryY=0;entryDx=0;entryDy=0;" edge="1" parent="1">
          <mxGeometry width="50" height="50" relative="1" as="geometry">
            <mxPoint x="-4081.71" y="400" as="sourcePoint" />
            <mxPoint x="-4081.71" y="480" as="targetPoint" />
          </mxGeometry>
        </mxCell>
        <mxCell id="Q2vNAMajYNCRpJ8Cx-mK-156" value="PTE0.PPN" style="text;html=1;align=center;verticalAlign=middle;whiteSpace=wrap;rounded=0;" vertex="1" parent="1">
          <mxGeometry x="-4071" y="430" width="60" height="30" as="geometry" />
        </mxCell>
        <mxCell id="Q2vNAMajYNCRpJ8Cx-mK-157" value="" style="endArrow=classic;html=1;rounded=0;fontSize=12;startSize=8;endSize=8;" edge="1" parent="1">
          <mxGeometry width="50" height="50" relative="1" as="geometry">
            <mxPoint x="-4261" y="360" as="sourcePoint" />
            <mxPoint x="-4121" y="520" as="targetPoint" />
            <Array as="points">
              <mxPoint x="-4261" y="520" />
            </Array>
          </mxGeometry>
        </mxCell>
        <mxCell id="Q2vNAMajYNCRpJ8Cx-mK-158" value="GPA2.offset" style="text;html=1;align=center;verticalAlign=middle;whiteSpace=wrap;rounded=0;" vertex="1" parent="1">
          <mxGeometry x="-4251" y="500" width="60" height="20" as="geometry" />
        </mxCell>
        <mxCell id="Q2vNAMajYNCRpJ8Cx-mK-159" value="HPA1" style="rounded=0;whiteSpace=wrap;html=1;fillColor=#647687;fontColor=#ffffff;strokeColor=#314354;" vertex="1" parent="1">
          <mxGeometry x="-4121" y="510" width="80" height="30" as="geometry" />
        </mxCell>
        <mxCell id="Q2vNAMajYNCRpJ8Cx-mK-160" value="" style="whiteSpace=wrap;html=1;aspect=fixed;fillColor=#dae8fc;strokeColor=#6c8ebf;" vertex="1" parent="1">
          <mxGeometry x="-4121" y="-160" width="80" height="80" as="geometry" />
        </mxCell>
        <mxCell id="Q2vNAMajYNCRpJ8Cx-mK-161" value="GPA2[3]" style="text;html=1;align=center;verticalAlign=middle;whiteSpace=wrap;rounded=0;" vertex="1" parent="1">
          <mxGeometry x="-4250" y="-140" width="60" height="20" as="geometry" />
        </mxCell>
        <mxCell id="Q2vNAMajYNCRpJ8Cx-mK-162" value="" style="endArrow=classic;html=1;rounded=0;fontSize=12;startSize=8;endSize=8;exitX=0.5;exitY=1;exitDx=0;exitDy=0;entryX=0.5;entryY=0;entryDx=0;entryDy=0;" edge="1" parent="1" source="Q2vNAMajYNCRpJ8Cx-mK-160">
          <mxGeometry width="50" height="50" relative="1" as="geometry">
            <mxPoint x="-4401" y="70" as="sourcePoint" />
            <mxPoint x="-4081" as="targetPoint" />
          </mxGeometry>
        </mxCell>
        <mxCell id="Q2vNAMajYNCRpJ8Cx-mK-163" value="PTE3.PPN" style="text;html=1;align=center;verticalAlign=middle;whiteSpace=wrap;rounded=0;" vertex="1" parent="1">
          <mxGeometry x="-4071" y="-40" width="60" height="30" as="geometry" />
        </mxCell>
        <mxCell id="Q2vNAMajYNCRpJ8Cx-mK-164" value="" style="endArrow=classic;html=1;rounded=0;fontSize=12;startSize=8;endSize=8;entryX=0;entryY=0.5;entryDx=0;entryDy=0;exitX=0.539;exitY=1.012;exitDx=0;exitDy=0;exitPerimeter=0;" edge="1" parent="1" target="Q2vNAMajYNCRpJ8Cx-mK-142" source="Q2vNAMajYNCRpJ8Cx-mK-13">
          <mxGeometry width="50" height="50" relative="1" as="geometry">
            <mxPoint x="-4261" y="-120" as="sourcePoint" />
            <mxPoint x="-3901" y="30" as="targetPoint" />
            <Array as="points">
              <mxPoint x="-4261" y="40" />
            </Array>
          </mxGeometry>
        </mxCell>
        <mxCell id="Q2vNAMajYNCRpJ8Cx-mK-190" value="" style="endArrow=classic;html=1;rounded=0;fontSize=12;startSize=8;endSize=8;exitX=1;exitY=0.5;exitDx=0;exitDy=0;entryX=0.072;entryY=1.014;entryDx=0;entryDy=0;entryPerimeter=0;" edge="1" parent="1" source="Q2vNAMajYNCRpJ8Cx-mK-209" target="Q2vNAMajYNCRpJ8Cx-mK-35">
          <mxGeometry width="50" height="50" relative="1" as="geometry">
            <mxPoint x="-3631" y="-111" as="sourcePoint" />
            <mxPoint x="-3500" y="-210" as="targetPoint" />
            <Array as="points">
              <mxPoint x="-3536" y="527" />
              <mxPoint x="-3536" y="300" />
            </Array>
          </mxGeometry>
        </mxCell>
        <mxCell id="Q2vNAMajYNCRpJ8Cx-mK-191" value="gPTE3" style="text;html=1;align=center;verticalAlign=middle;whiteSpace=wrap;rounded=0;" vertex="1" parent="1">
          <mxGeometry x="-3601" y="501.5" width="60" height="20" as="geometry" />
        </mxCell>
        <mxCell id="Q2vNAMajYNCRpJ8Cx-mK-192" value="" style="whiteSpace=wrap;html=1;aspect=fixed;fillColor=#dae8fc;strokeColor=#6c8ebf;" vertex="1" parent="1">
          <mxGeometry x="-3711" y="1.5" width="80" height="80" as="geometry" />
        </mxCell>
        <mxCell id="Q2vNAMajYNCRpJ8Cx-mK-193" value="" style="whiteSpace=wrap;html=1;aspect=fixed;fillColor=#dae8fc;strokeColor=#6c8ebf;" vertex="1" parent="1">
          <mxGeometry x="-3711" y="161.5" width="80" height="80" as="geometry" />
        </mxCell>
        <mxCell id="Q2vNAMajYNCRpJ8Cx-mK-194" value="" style="whiteSpace=wrap;html=1;aspect=fixed;fillColor=#dae8fc;strokeColor=#6c8ebf;" vertex="1" parent="1">
          <mxGeometry x="-3711" y="321.5" width="80" height="80" as="geometry" />
        </mxCell>
        <mxCell id="Q2vNAMajYNCRpJ8Cx-mK-195" value="GPA3[2]" style="text;html=1;align=center;verticalAlign=middle;whiteSpace=wrap;rounded=0;" vertex="1" parent="1">
          <mxGeometry x="-3841" y="21.5" width="60" height="20" as="geometry" />
        </mxCell>
        <mxCell id="Q2vNAMajYNCRpJ8Cx-mK-196" value="" style="endArrow=classic;html=1;rounded=0;fontSize=12;startSize=8;endSize=8;entryX=-0.044;entryY=0.495;entryDx=0;entryDy=0;entryPerimeter=0;" edge="1" parent="1" target="Q2vNAMajYNCRpJ8Cx-mK-193">
          <mxGeometry width="50" height="50" relative="1" as="geometry">
            <mxPoint x="-3851" y="41.5" as="sourcePoint" />
            <mxPoint x="-3821" y="21.5" as="targetPoint" />
            <Array as="points">
              <mxPoint x="-3851" y="111.5" />
              <mxPoint x="-3851" y="201.5" />
            </Array>
          </mxGeometry>
        </mxCell>
        <mxCell id="Q2vNAMajYNCRpJ8Cx-mK-197" value="GPA3[1]" style="text;html=1;align=center;verticalAlign=middle;whiteSpace=wrap;rounded=0;" vertex="1" parent="1">
          <mxGeometry x="-3841" y="181.5" width="60" height="20" as="geometry" />
        </mxCell>
        <mxCell id="Q2vNAMajYNCRpJ8Cx-mK-198" value="" style="endArrow=classic;html=1;rounded=0;fontSize=12;startSize=8;endSize=8;entryX=0;entryY=0.5;entryDx=0;entryDy=0;" edge="1" parent="1" target="Q2vNAMajYNCRpJ8Cx-mK-194">
          <mxGeometry width="50" height="50" relative="1" as="geometry">
            <mxPoint x="-3851" y="201.5" as="sourcePoint" />
            <mxPoint x="-3701" y="301.5" as="targetPoint" />
            <Array as="points">
              <mxPoint x="-3851" y="361.5" />
            </Array>
          </mxGeometry>
        </mxCell>
        <mxCell id="Q2vNAMajYNCRpJ8Cx-mK-199" value="GPA3[0]" style="text;html=1;align=center;verticalAlign=middle;whiteSpace=wrap;rounded=0;" vertex="1" parent="1">
          <mxGeometry x="-3841" y="341.5" width="60" height="20" as="geometry" />
        </mxCell>
        <mxCell id="Q2vNAMajYNCRpJ8Cx-mK-200" value="" style="endArrow=classic;html=1;rounded=0;fontSize=12;startSize=8;endSize=8;exitX=0.5;exitY=1;exitDx=0;exitDy=0;entryX=0.5;entryY=0;entryDx=0;entryDy=0;" edge="1" parent="1" source="Q2vNAMajYNCRpJ8Cx-mK-192" target="Q2vNAMajYNCRpJ8Cx-mK-193">
          <mxGeometry width="50" height="50" relative="1" as="geometry">
            <mxPoint x="-3991" y="231.5" as="sourcePoint" />
            <mxPoint x="-3941" y="181.5" as="targetPoint" />
          </mxGeometry>
        </mxCell>
        <mxCell id="Q2vNAMajYNCRpJ8Cx-mK-201" value="" style="endArrow=classic;html=1;rounded=0;fontSize=12;startSize=8;endSize=8;exitX=0.5;exitY=1;exitDx=0;exitDy=0;entryX=0.5;entryY=0;entryDx=0;entryDy=0;" edge="1" parent="1">
          <mxGeometry width="50" height="50" relative="1" as="geometry">
            <mxPoint x="-3671.71" y="241.5" as="sourcePoint" />
            <mxPoint x="-3671.71" y="321.5" as="targetPoint" />
          </mxGeometry>
        </mxCell>
        <mxCell id="Q2vNAMajYNCRpJ8Cx-mK-202" value="PTE2.PPN" style="text;html=1;align=center;verticalAlign=middle;whiteSpace=wrap;rounded=0;" vertex="1" parent="1">
          <mxGeometry x="-3661" y="121.5" width="60" height="30" as="geometry" />
        </mxCell>
        <mxCell id="Q2vNAMajYNCRpJ8Cx-mK-203" value="PTE1.PPN" style="text;html=1;align=center;verticalAlign=middle;whiteSpace=wrap;rounded=0;" vertex="1" parent="1">
          <mxGeometry x="-3661" y="281.5" width="60" height="30" as="geometry" />
        </mxCell>
        <mxCell id="Q2vNAMajYNCRpJ8Cx-mK-204" value="" style="whiteSpace=wrap;html=1;aspect=fixed;fillColor=#dae8fc;strokeColor=#6c8ebf;" vertex="1" parent="1">
          <mxGeometry x="-3711" y="481.5" width="80" height="80" as="geometry" />
        </mxCell>
        <mxCell id="Q2vNAMajYNCRpJ8Cx-mK-205" value="" style="endArrow=classic;html=1;rounded=0;fontSize=12;startSize=8;endSize=8;exitX=0.5;exitY=1;exitDx=0;exitDy=0;entryX=0.5;entryY=0;entryDx=0;entryDy=0;" edge="1" parent="1">
          <mxGeometry width="50" height="50" relative="1" as="geometry">
            <mxPoint x="-3671.71" y="401.5" as="sourcePoint" />
            <mxPoint x="-3671.71" y="481.5" as="targetPoint" />
          </mxGeometry>
        </mxCell>
        <mxCell id="Q2vNAMajYNCRpJ8Cx-mK-206" value="PTE0.PPN" style="text;html=1;align=center;verticalAlign=middle;whiteSpace=wrap;rounded=0;" vertex="1" parent="1">
          <mxGeometry x="-3661" y="431.5" width="60" height="30" as="geometry" />
        </mxCell>
        <mxCell id="Q2vNAMajYNCRpJ8Cx-mK-207" value="" style="endArrow=classic;html=1;rounded=0;fontSize=12;startSize=8;endSize=8;" edge="1" parent="1">
          <mxGeometry width="50" height="50" relative="1" as="geometry">
            <mxPoint x="-3851" y="361.5" as="sourcePoint" />
            <mxPoint x="-3711" y="521.5" as="targetPoint" />
            <Array as="points">
              <mxPoint x="-3851" y="521.5" />
            </Array>
          </mxGeometry>
        </mxCell>
        <mxCell id="Q2vNAMajYNCRpJ8Cx-mK-208" value="GPA3.offset" style="text;html=1;align=center;verticalAlign=middle;whiteSpace=wrap;rounded=0;" vertex="1" parent="1">
          <mxGeometry x="-3841" y="501.5" width="60" height="20" as="geometry" />
        </mxCell>
        <mxCell id="Q2vNAMajYNCRpJ8Cx-mK-209" value="HPA0" style="rounded=0;whiteSpace=wrap;html=1;fillColor=#647687;fontColor=#ffffff;strokeColor=#314354;" vertex="1" parent="1">
          <mxGeometry x="-3711" y="511.5" width="80" height="30" as="geometry" />
        </mxCell>
        <mxCell id="Q2vNAMajYNCRpJ8Cx-mK-210" value="" style="whiteSpace=wrap;html=1;aspect=fixed;fillColor=#dae8fc;strokeColor=#6c8ebf;" vertex="1" parent="1">
          <mxGeometry x="-3711" y="-158.5" width="80" height="80" as="geometry" />
        </mxCell>
        <mxCell id="Q2vNAMajYNCRpJ8Cx-mK-211" value="GPA3[3]" style="text;html=1;align=center;verticalAlign=middle;whiteSpace=wrap;rounded=0;" vertex="1" parent="1">
          <mxGeometry x="-3841" y="-140" width="60" height="20" as="geometry" />
        </mxCell>
        <mxCell id="Q2vNAMajYNCRpJ8Cx-mK-212" value="" style="endArrow=classic;html=1;rounded=0;fontSize=12;startSize=8;endSize=8;exitX=0.5;exitY=1;exitDx=0;exitDy=0;entryX=0.5;entryY=0;entryDx=0;entryDy=0;" edge="1" parent="1" source="Q2vNAMajYNCRpJ8Cx-mK-210">
          <mxGeometry width="50" height="50" relative="1" as="geometry">
            <mxPoint x="-3991" y="71.5" as="sourcePoint" />
            <mxPoint x="-3671" y="1.5" as="targetPoint" />
          </mxGeometry>
        </mxCell>
        <mxCell id="Q2vNAMajYNCRpJ8Cx-mK-213" value="PTE3.PPN" style="text;html=1;align=center;verticalAlign=middle;whiteSpace=wrap;rounded=0;" vertex="1" parent="1">
          <mxGeometry x="-3661" y="-38.5" width="60" height="30" as="geometry" />
        </mxCell>
        <mxCell id="Q2vNAMajYNCRpJ8Cx-mK-214" value="" style="endArrow=classic;html=1;rounded=0;fontSize=12;startSize=8;endSize=8;entryX=0;entryY=0.5;entryDx=0;entryDy=0;" edge="1" parent="1" target="Q2vNAMajYNCRpJ8Cx-mK-192">
          <mxGeometry width="50" height="50" relative="1" as="geometry">
            <mxPoint x="-3850" y="-210" as="sourcePoint" />
            <mxPoint x="-3491" y="31.5" as="targetPoint" />
            <Array as="points">
              <mxPoint x="-3851" y="41.5" />
            </Array>
          </mxGeometry>
        </mxCell>
        <mxCell id="Q2vNAMajYNCRpJ8Cx-mK-217" value="" style="whiteSpace=wrap;html=1;aspect=fixed;fillColor=#dae8fc;strokeColor=#6c8ebf;" vertex="1" parent="1">
          <mxGeometry x="-3300" width="80" height="80" as="geometry" />
        </mxCell>
        <mxCell id="Q2vNAMajYNCRpJ8Cx-mK-218" value="" style="whiteSpace=wrap;html=1;aspect=fixed;fillColor=#dae8fc;strokeColor=#6c8ebf;" vertex="1" parent="1">
          <mxGeometry x="-3300" y="160" width="80" height="80" as="geometry" />
        </mxCell>
        <mxCell id="Q2vNAMajYNCRpJ8Cx-mK-219" value="" style="whiteSpace=wrap;html=1;aspect=fixed;fillColor=#dae8fc;strokeColor=#6c8ebf;" vertex="1" parent="1">
          <mxGeometry x="-3300" y="320" width="80" height="80" as="geometry" />
        </mxCell>
        <mxCell id="Q2vNAMajYNCRpJ8Cx-mK-220" value="GPA4[2]" style="text;html=1;align=center;verticalAlign=middle;whiteSpace=wrap;rounded=0;" vertex="1" parent="1">
          <mxGeometry x="-3430" y="20" width="60" height="20" as="geometry" />
        </mxCell>
        <mxCell id="Q2vNAMajYNCRpJ8Cx-mK-221" value="" style="endArrow=classic;html=1;rounded=0;fontSize=12;startSize=8;endSize=8;entryX=-0.044;entryY=0.495;entryDx=0;entryDy=0;entryPerimeter=0;" edge="1" parent="1" target="Q2vNAMajYNCRpJ8Cx-mK-218">
          <mxGeometry width="50" height="50" relative="1" as="geometry">
            <mxPoint x="-3440" y="40" as="sourcePoint" />
            <mxPoint x="-3410" y="20" as="targetPoint" />
            <Array as="points">
              <mxPoint x="-3440" y="110" />
              <mxPoint x="-3440" y="200" />
            </Array>
          </mxGeometry>
        </mxCell>
        <mxCell id="Q2vNAMajYNCRpJ8Cx-mK-222" value="GPA4[1]" style="text;html=1;align=center;verticalAlign=middle;whiteSpace=wrap;rounded=0;" vertex="1" parent="1">
          <mxGeometry x="-3430" y="180" width="60" height="20" as="geometry" />
        </mxCell>
        <mxCell id="Q2vNAMajYNCRpJ8Cx-mK-223" value="" style="endArrow=classic;html=1;rounded=0;fontSize=12;startSize=8;endSize=8;entryX=0;entryY=0.5;entryDx=0;entryDy=0;" edge="1" parent="1" target="Q2vNAMajYNCRpJ8Cx-mK-219">
          <mxGeometry width="50" height="50" relative="1" as="geometry">
            <mxPoint x="-3440" y="200" as="sourcePoint" />
            <mxPoint x="-3290" y="300" as="targetPoint" />
            <Array as="points">
              <mxPoint x="-3440" y="360" />
            </Array>
          </mxGeometry>
        </mxCell>
        <mxCell id="Q2vNAMajYNCRpJ8Cx-mK-224" value="GPA4[0]" style="text;html=1;align=center;verticalAlign=middle;whiteSpace=wrap;rounded=0;" vertex="1" parent="1">
          <mxGeometry x="-3430" y="340" width="60" height="20" as="geometry" />
        </mxCell>
        <mxCell id="Q2vNAMajYNCRpJ8Cx-mK-225" value="" style="endArrow=classic;html=1;rounded=0;fontSize=12;startSize=8;endSize=8;exitX=0.5;exitY=1;exitDx=0;exitDy=0;entryX=0.5;entryY=0;entryDx=0;entryDy=0;" edge="1" parent="1" source="Q2vNAMajYNCRpJ8Cx-mK-217" target="Q2vNAMajYNCRpJ8Cx-mK-218">
          <mxGeometry width="50" height="50" relative="1" as="geometry">
            <mxPoint x="-3580" y="230" as="sourcePoint" />
            <mxPoint x="-3530" y="180" as="targetPoint" />
          </mxGeometry>
        </mxCell>
        <mxCell id="Q2vNAMajYNCRpJ8Cx-mK-226" value="" style="endArrow=classic;html=1;rounded=0;fontSize=12;startSize=8;endSize=8;exitX=0.5;exitY=1;exitDx=0;exitDy=0;entryX=0.5;entryY=0;entryDx=0;entryDy=0;" edge="1" parent="1">
          <mxGeometry width="50" height="50" relative="1" as="geometry">
            <mxPoint x="-3260.71" y="240" as="sourcePoint" />
            <mxPoint x="-3260.71" y="320" as="targetPoint" />
          </mxGeometry>
        </mxCell>
        <mxCell id="Q2vNAMajYNCRpJ8Cx-mK-227" value="PTE2.PPN" style="text;html=1;align=center;verticalAlign=middle;whiteSpace=wrap;rounded=0;" vertex="1" parent="1">
          <mxGeometry x="-3250" y="120" width="60" height="30" as="geometry" />
        </mxCell>
        <mxCell id="Q2vNAMajYNCRpJ8Cx-mK-228" value="PTE1.PPN" style="text;html=1;align=center;verticalAlign=middle;whiteSpace=wrap;rounded=0;" vertex="1" parent="1">
          <mxGeometry x="-3250" y="280" width="60" height="30" as="geometry" />
        </mxCell>
        <mxCell id="Q2vNAMajYNCRpJ8Cx-mK-229" value="" style="whiteSpace=wrap;html=1;aspect=fixed;fillColor=#dae8fc;strokeColor=#6c8ebf;" vertex="1" parent="1">
          <mxGeometry x="-3300" y="480" width="80" height="80" as="geometry" />
        </mxCell>
        <mxCell id="Q2vNAMajYNCRpJ8Cx-mK-230" value="" style="endArrow=classic;html=1;rounded=0;fontSize=12;startSize=8;endSize=8;exitX=0.5;exitY=1;exitDx=0;exitDy=0;entryX=0.5;entryY=0;entryDx=0;entryDy=0;" edge="1" parent="1">
          <mxGeometry width="50" height="50" relative="1" as="geometry">
            <mxPoint x="-3260.71" y="400" as="sourcePoint" />
            <mxPoint x="-3260.71" y="480" as="targetPoint" />
          </mxGeometry>
        </mxCell>
        <mxCell id="Q2vNAMajYNCRpJ8Cx-mK-231" value="PTE0.PPN" style="text;html=1;align=center;verticalAlign=middle;whiteSpace=wrap;rounded=0;" vertex="1" parent="1">
          <mxGeometry x="-3250" y="430" width="60" height="30" as="geometry" />
        </mxCell>
        <mxCell id="Q2vNAMajYNCRpJ8Cx-mK-232" value="" style="endArrow=classic;html=1;rounded=0;fontSize=12;startSize=8;endSize=8;" edge="1" parent="1">
          <mxGeometry width="50" height="50" relative="1" as="geometry">
            <mxPoint x="-3440" y="360" as="sourcePoint" />
            <mxPoint x="-3300" y="520" as="targetPoint" />
            <Array as="points">
              <mxPoint x="-3440" y="520" />
            </Array>
          </mxGeometry>
        </mxCell>
        <mxCell id="Q2vNAMajYNCRpJ8Cx-mK-233" value="GPA4.offset" style="text;html=1;align=center;verticalAlign=middle;whiteSpace=wrap;rounded=0;" vertex="1" parent="1">
          <mxGeometry x="-3430" y="500" width="60" height="20" as="geometry" />
        </mxCell>
        <mxCell id="Q2vNAMajYNCRpJ8Cx-mK-234" value="HPA" style="rounded=0;whiteSpace=wrap;html=1;fillColor=#0050ef;fontColor=#ffffff;strokeColor=#001DBC;" vertex="1" parent="1">
          <mxGeometry x="-3300" y="510" width="80" height="30" as="geometry" />
        </mxCell>
        <mxCell id="Q2vNAMajYNCRpJ8Cx-mK-235" value="" style="whiteSpace=wrap;html=1;aspect=fixed;fillColor=#dae8fc;strokeColor=#6c8ebf;" vertex="1" parent="1">
          <mxGeometry x="-3300" y="-160" width="80" height="80" as="geometry" />
        </mxCell>
        <mxCell id="Q2vNAMajYNCRpJ8Cx-mK-236" value="GPA4[3]" style="text;html=1;align=center;verticalAlign=middle;whiteSpace=wrap;rounded=0;" vertex="1" parent="1">
          <mxGeometry x="-3430" y="-140" width="60" height="20" as="geometry" />
        </mxCell>
        <mxCell id="Q2vNAMajYNCRpJ8Cx-mK-237" value="" style="endArrow=classic;html=1;rounded=0;fontSize=12;startSize=8;endSize=8;exitX=0.5;exitY=1;exitDx=0;exitDy=0;entryX=0.5;entryY=0;entryDx=0;entryDy=0;" edge="1" parent="1" source="Q2vNAMajYNCRpJ8Cx-mK-235">
          <mxGeometry width="50" height="50" relative="1" as="geometry">
            <mxPoint x="-3580" y="70" as="sourcePoint" />
            <mxPoint x="-3260" as="targetPoint" />
          </mxGeometry>
        </mxCell>
        <mxCell id="Q2vNAMajYNCRpJ8Cx-mK-238" value="PTE3.PPN" style="text;html=1;align=center;verticalAlign=middle;whiteSpace=wrap;rounded=0;" vertex="1" parent="1">
          <mxGeometry x="-3250" y="-40" width="60" height="30" as="geometry" />
        </mxCell>
        <mxCell id="Q2vNAMajYNCRpJ8Cx-mK-239" value="" style="endArrow=classic;html=1;rounded=0;fontSize=12;startSize=8;endSize=8;entryX=0;entryY=0.5;entryDx=0;entryDy=0;" edge="1" parent="1" target="Q2vNAMajYNCRpJ8Cx-mK-217">
          <mxGeometry width="50" height="50" relative="1" as="geometry">
            <mxPoint x="-3440" y="-120" as="sourcePoint" />
            <mxPoint x="-3080" y="30" as="targetPoint" />
            <Array as="points">
              <mxPoint x="-3440" y="40" />
            </Array>
          </mxGeometry>
        </mxCell>
        <mxCell id="Q2vNAMajYNCRpJ8Cx-mK-244" value="&lt;b&gt;&lt;font style=&quot;font-size: 20px;&quot;&gt;VSATP: sv48&amp;nbsp; &amp;nbsp; &amp;nbsp; &amp;nbsp;HGATP : sv48x4&lt;/font&gt;&lt;/b&gt;" style="text;html=1;align=center;verticalAlign=middle;whiteSpace=wrap;rounded=0;fontSize=16;" vertex="1" parent="1">
          <mxGeometry x="-5470" y="-510" width="470" height="30" as="geometry" />
        </mxCell>
        <mxCell id="Q2vNAMajYNCRpJ8Cx-mK-249" value="HGATP.PPN" style="text;html=1;align=center;verticalAlign=middle;whiteSpace=wrap;rounded=0;" vertex="1" parent="1">
          <mxGeometry x="-4920" y="-190" width="60" height="30" as="geometry" />
        </mxCell>
        <mxCell id="Q2vNAMajYNCRpJ8Cx-mK-251" value="HGATP.PPN" style="text;html=1;align=center;verticalAlign=middle;whiteSpace=wrap;rounded=0;" vertex="1" parent="1">
          <mxGeometry x="-4520" y="-190" width="60" height="30" as="geometry" />
        </mxCell>
        <mxCell id="Q2vNAMajYNCRpJ8Cx-mK-252" value="HGATP.PPN" style="text;html=1;align=center;verticalAlign=middle;whiteSpace=wrap;rounded=0;" vertex="1" parent="1">
          <mxGeometry x="-4071" y="-190" width="60" height="30" as="geometry" />
        </mxCell>
        <mxCell id="Q2vNAMajYNCRpJ8Cx-mK-255" value="HGATP.PPN" style="text;html=1;align=center;verticalAlign=middle;whiteSpace=wrap;rounded=0;" vertex="1" parent="1">
          <mxGeometry x="-3661" y="-190" width="60" height="30" as="geometry" />
        </mxCell>
        <mxCell id="Q2vNAMajYNCRpJ8Cx-mK-256" value="HGATP.PPN" style="text;html=1;align=center;verticalAlign=middle;whiteSpace=wrap;rounded=0;" vertex="1" parent="1">
          <mxGeometry x="-3250" y="-190" width="60" height="30" as="geometry" />
        </mxCell>
      </root>
    </mxGraphModel>
  </diagram>
</mxfile>
